<?xml version="1.0" encoding="UTF-8"?>
<svg id="Calque_1" xmlns="http://www.w3.org/2000/svg" version="1.1" xmlns:xlink="http://www.w3.org/1999/xlink" viewBox="0 0 3193.74 3475.32">
  <!-- Generator: Adobe Illustrator 30.0.0, SVG Export Plug-In . SVG Version: 2.1.1 Build 123)  -->
  <defs>
    <style>
      .st0 {
        fill: #edb1a4;
      }

      .st1, .st2, .st3, .st4 {
        fill: #343285;
      }

      .st1, .st5 {
        font-family: PixelDigivolve, 'Pixel Digivolve';
        font-size: 234.09px;
      }

      .st6 {
        stroke: #005467;
        stroke-width: .74px;
      }

      .st6, .st7, .st8, .st9, .st10, .st11, .st12, .st13, .st14 {
        fill: none;
      }

      .st6, .st7, .st8, .st9, .st11, .st12, .st13, .st14, .st4 {
        stroke-miterlimit: 10;
      }

      .st7 {
        stroke-width: 22px;
      }

      .st7, .st4 {
        stroke: #2b3095;
      }

      .st15 {
        fill: #eb496f;
      }

      .st8 {
        stroke: #00b0d1;
        stroke-width: 2px;
      }

      .st16 {
        font-size: 35.25px;
      }

      .st16, .st17, .st18, .st19, .st20, .st21, .st22, .st23 {
        isolation: isolate;
      }

      .st16, .st17, .st19, .st20, .st22, .st23 {
        font-family: ArialMT, Arial;
      }

      .st16, .st17, .st24, .st20 {
        fill: #08b;
      }

      .st9 {
        stroke: #924541;
        stroke-width: 1.38px;
      }

      .st25 {
        fill: #a3d2f4;
      }

      .st26 {
        fill: #8cb1cc;
      }

      .st27, .st23 {
        fill: #fff;
      }

      .st28, .st21 {
        fill: #383838;
      }

      .st29 {
        fill: #cdcdcd;
      }

      .st30 {
        fill: #222220;
      }

      .st17, .st19 {
        font-size: 18.92px;
      }

      .st18, .st31 {
        fill: #924541;
      }

      .st18, .st32 {
        opacity: .5;
      }

      .st33 {
        fill: #735546;
      }

      .st34 {
        fill: #3f3e58;
      }

      .st35 {
        fill: #cced98;
      }

      .st36 {
        fill: #d17a80;
      }

      .st37 {
        fill: #d66156;
      }

      .st38 {
        clip-path: url(#clippath-1);
      }

      .st19, .st39, .st22 {
        fill: #fdbb3b;
      }

      .st11 {
        stroke-width: 1.44px;
      }

      .st11, .st14 {
        stroke: #d17a80;
      }

      .st40 {
        fill: #33324f;
      }

      .st41 {
        fill: #ef8a62;
      }

      .st5, .st42 {
        fill: #ec1c24;
      }

      .st43 {
        fill: #684d3f;
      }

      .st44 {
        fill: #bf7759;
      }

      .st45 {
        fill: #efb3a6;
      }

      .st12 {
        stroke: #d66156;
        stroke-width: 1.37px;
      }

      .st46 {
        fill: #e2e4e4;
      }

      .st47 {
        fill: #f4ca60;
      }

      .st13 {
        stroke: #ec9e05;
        stroke-width: 1.11px;
      }

      .st48 {
        fill: #f47394;
      }

      .st14 {
        stroke-width: 1.48px;
      }

      .st49 {
        fill: #00b0d1;
      }

      .st50 {
        fill: #eee;
      }

      .st3 {
        font-family: PoorRichard-Regular, 'Poor Richard';
        font-size: 345.42px;
        letter-spacing: .2em;
      }

      .st4 {
        stroke-width: 14px;
      }

      .st51 {
        fill: #e8776e;
      }

      .st20 {
        font-size: 10.47px;
      }

      .st52 {
        fill: #972a45;
      }

      .st53 {
        fill: #dc3c5e;
      }

      .st54 {
        fill: #00aa80;
      }

      .st55 {
        fill: #5b3f30;
      }

      .st21 {
        opacity: .2;
      }

      .st22 {
        font-size: 21.03px;
      }

      .st56 {
        clip-path: url(#clippath);
      }

      .st57 {
        fill: #f2cbb6;
      }

      .st58 {
        fill: #006891;
      }

      .st23 {
        font-size: 19.77px;
      }
    </style>
    <clipPath id="clippath">
      <path class="st10" d="M1477.23,1372.45s-3.38,14.33-2.54,14.88c.85.55,40.77,1.1,42.29,0,1.52-1.1.2-8.08-21.21-14.88,0,0-12.62-4.41-18.54,0Z"/>
    </clipPath>
    <clipPath id="clippath-1">
      <path class="st10" d="M1524.62,1372.45s-3.38,14.33-2.54,14.88c.85.55,40.77,1.1,42.29,0,1.52-1.1.2-8.08-21.21-14.88,0,0-12.62-4.41-18.54,0Z"/>
    </clipPath>
  </defs>
  <path class="st27" d="M1833.09,1627.88c.62-1.79,1.28-3.57,1.98-5.33-.94.76-1.87,1.55-2.79,2.34.3,1,.57,2,.81,2.99Z"/>
  <path class="st27" d="M1892.86,1633.45c1.08-.65,2.19-1.26,3.3-1.84.09-.24.19-.48.29-.71-1.37.86-2.61,1.79-3.59,2.56Z"/>
  <path class="st4" d="M1441.47,1791.63c55.21,49.75,129.23,77.86,208.42,79.14l5.92.1c79.19,1.29,154.05-24.39,210.78-72.32,56.66-47.87,88.46-112.21,89.53-181.17l8.67-558.02-598.52-9.75-8.67,558.02c-1.07,68.96,28.71,134.3,83.86,183.99ZM1372.64,1054.92l585.64,9.54-8.59,552.82c-2.17,139.57-133.96,251-293.79,248.4l-5.92-.1c-159.83-2.6-288.09-118.27-285.93-257.84l8.59-552.82Z"/>
  <path class="st2" d="M1195.55,1250.51c6.79,4.55,16.16-2.45,13.69-10.58-1.05-3.47-2.13-6.85-3.2-10.19h.02c60.76-17.37,58.89-96.67,43.91-140.84-2.24-6.58-12.74-8.55-17.23-1.71-18.71,28.45-47.4,51.45-56.49,84.88-6.3,23.18-4.25,53.96,11.5,71.58-16.82,31.95-27.91,66.9-34.79,103.27-4.6-9.65-11.11-18.51-19.13-26.83-9.5-9.86-34.85-38.55-49.09-15.01-10.36,17.13,2.94,47.4,10.89,61.41,11.19,19.75,28.48,35.19,49.73,43.34-1.82,31.99-.56,64.39,2.61,96.46-14.03-19.49-37.72-30.66-61.53-39.25-11.37-4.1-20.83,7.27-18.44,18.06,8.81,39.63,45.28,72.19,86.8,73.55.07,0,.15-.03.23-.03,7.2,41.84,17.62,82.06,29.89,118.58-24.97-27.43-60.81-40.58-99.99-35.08-9.53,1.34-14.01,12.61-9.2,19.81,24.33,36.47,73.92,57.29,119.58,43.72,1.12,2.93,2.15,6.09,3.29,8.96,12.94,32.31,28.82,63.05,47.38,91.62-29.99-12.07-65.18-27.04-96.38-8.52-6.08,3.6-11.61,12.54-5.94,18.58,29.44,31.42,81.72,44.88,124.07,20.68,28.65,37.27,62.65,69.54,101.61,94.95-36.04-3.72-76.56,11.69-107.98,30.47-8.87,5.3-6.71,19.86,1.7,22.63,45.36,14.93,97.35,5.51,136.25-29.33,1.55-1.38,2.46-2.9,3.11-4.45,32.04,16.45,67.01,28.45,104.84,35.03,12.02,2.09,15.23-16.58,3.72-19.09-29.61-6.44-56.62-15.72-81.71-26.98.77-1.6,1.13-3.42,1.01-5.46,20.59-25.97,24.37-63.02,12.53-90.71-3.47-8.12-16.93-12.11-23.09-2.3-15.73,25.05-24.48,56.15-19.31,84.08-46.21-25.68-84.34-59.46-114.96-99.49,2.49,1.49,5.85,1.69,9.15-.58,41.23-28.25,77.06-81.48,62.31-129.51-2.18-7.09-12.09-9.5-18.17-4.35-34.68,29.39-53.98,71.06-53.12,114.5.03,1.6.4,3.01,1.01,4.28-.99,1.29-2.02,2.58-2.96,3.86-1.85,2.5-2.13,5.01-1.6,7.19-28.07-37.76-49.95-80.59-66.19-126.84,1.48.1,3.04-.11,4.73-1.07,36.9-21.12,77.6-56.68,68.78-102.16-1.65-8.52-10.63-14.08-18.93-7.51-29.65,23.49-50.26,54.08-61.25,89.41-12.08-38.97-20.77-79.82-25.92-121.88,28.79,3.11,59.36-7.85,84.3-25.05,20.73-14.31,46.2-35.81,38.75-62-1.8-6.31-9.06-7.92-14.89-5.9-40.33,13.94-76.31,36.32-107.46,66.86-1.35,1.33-2.32,2.84-3.07,4.43-4.15-43.31-5.1-87.47-3.16-131.4,42.01-11.65,77-48.89,86.51-91.54,1.85-8.3-6.71-14.92-14.46-11.33-25.68,11.91-50.04,29.59-68.54,51.82,3.08-33.16,7.58-65.93,13.48-97.8.27.25.5.55.81.77Z"/>
  <path class="st42" d="M2111.3,1263.81c5.89,31.86,10.4,64.64,13.48,97.8-18.5-22.23-42.87-39.91-68.54-51.82-7.75-3.59-16.31,3.03-14.46,11.33,9.5,42.65,44.49,79.89,86.51,91.54,1.94,43.93.99,88.09-3.16,131.4-.75-1.59-1.71-3.1-3.07-4.43-31.15-30.55-67.13-52.93-107.46-66.86-5.83-2.02-13.09-.41-14.89,5.9-7.45,26.19,18.01,47.69,38.75,62,24.95,17.2,55.52,28.16,84.3,25.05-5.15,42.06-13.84,82.91-25.92,121.88-10.99-35.33-31.6-65.92-61.25-89.41-8.3-6.56-17.28-1-18.93,7.51-8.81,45.48,31.88,81.04,68.78,102.16,1.69.96,3.25,1.17,4.73,1.07-16.23,46.24-38.12,89.07-66.19,126.84.54-2.18.25-4.69-1.6-7.19-.95-1.28-1.97-2.57-2.96-3.86.61-1.27.98-2.68,1.01-4.28.86-43.44-18.45-85.11-53.12-114.5-6.08-5.15-15.99-2.75-18.17,4.35-14.75,48.03,21.08,101.26,62.31,129.51,3.3,2.26,6.66,2.07,9.15.58-30.63,40.03-68.76,73.8-114.96,99.49,5.17-27.94-3.58-59.03-19.31-84.08-6.17-9.81-19.62-5.82-23.09,2.3-11.84,27.7-8.06,64.74,12.53,90.71-.12,2.04.24,3.86,1.01,5.46-25.09,11.26-52.1,20.54-81.71,26.98-11.51,2.52-8.3,21.19,3.72,19.09,37.83-6.57,72.8-18.58,104.84-35.03.65,1.54,1.56,3.06,3.11,4.45,38.9,34.84,90.89,44.26,136.25,29.33,8.41-2.77,10.56-17.33,1.7-22.63-31.42-18.78-71.94-34.19-107.98-30.47,38.96-25.4,72.96-57.67,101.61-94.95,42.35,24.2,94.63,10.74,124.07-20.68,5.67-6.04.14-14.97-5.94-18.58-31.2-18.52-66.39-3.55-96.38,8.52,18.55-28.57,34.44-59.31,47.38-91.62,1.14-2.86,2.17-6.03,3.29-8.96,45.66,13.57,95.25-7.25,119.58-43.72,4.81-7.19.32-18.46-9.2-19.81-39.18-5.5-75.02,7.65-99.99,35.08,12.27-36.52,22.69-76.74,29.89-118.58.08,0,.16.04.23.03,41.52-1.36,77.99-33.92,86.8-73.55,2.39-10.8-7.07-22.16-18.44-18.06-23.81,8.59-47.5,19.76-61.53,39.25,3.17-32.06,4.43-64.46,2.61-96.46,21.25-8.15,38.54-23.59,49.73-43.34,7.94-14.01,21.25-44.28,10.89-61.41-14.24-23.54-39.58,5.15-49.09,15.01-8.02,8.32-14.53,17.18-19.13,26.83-6.88-36.36-17.97-71.32-34.79-103.27,15.75-17.62,17.79-48.4,11.5-71.58-9.09-33.43-37.77-56.43-56.49-84.88-4.49-6.84-14.99-4.87-17.23,1.71-14.98,44.18-16.86,123.48,43.91,140.84h.02c-1.07,3.34-2.15,6.72-3.2,10.19-2.47,8.14,6.9,15.13,13.69,10.58.31-.21.54-.52.81-.77Z"/>
  <text class="st3" transform="translate(955.33 2296.66) scale(.97 1)"><tspan x="0" y="0">UNIPRO</tspan></text>
  <text class="st5" transform="translate(1668.7 2530.83) scale(.78 1)"><tspan x="0" y="0">club</tspan></text>
  <text class="st1" transform="translate(1158.24 2530.83) scale(.81 1)"><tspan x="0" y="0">tech</tspan></text>
  <line class="st7" x1="1367.12" y1="1399.11" x2="1955.26" y2="1404.98"/>
  <line class="st7" x1="1664.77" y1="1054.92" x2="1661.46" y2="1402.05"/>
  <text/>
  <g id="OBJECTS">
    <g>
      <g>
        <path class="st46" d="M1654.78,1453.75v88.81c0,3.78-3.01,6.84-6.73,6.84h-142.4c-3.72,0-6.73-3.06-6.73-6.84v-88.81c0-3.78,3.01-6.84,6.73-6.84h142.4c3.72,0,6.73,3.06,6.73,6.84Z"/>
        <g>
          <path class="st58" d="M1654.78,1453.75v7.08h-155.86v-7.08c0-3.78,3.01-6.84,6.73-6.84h142.4c3.72,0,6.73,3.06,6.73,6.84Z"/>
          <g>
            <path class="st54" d="M1529.72,1453.87c0,2.15-1.72,3.9-3.84,3.9s-3.84-1.75-3.84-3.9,1.72-3.9,3.84-3.9c2.12,0,3.84,1.75,3.84,3.9Z"/>
            <path class="st39" d="M1519.71,1453.87c0,2.15-1.72,3.9-3.84,3.9s-3.84-1.75-3.84-3.9,1.72-3.9,3.84-3.9c2.12,0,3.84,1.75,3.84,3.9Z"/>
            <path class="st15" d="M1509.45,1453.87c0,2.15-1.72,3.9-3.84,3.9s-3.84-1.75-3.84-3.9,1.72-3.9,3.84-3.9c2.12,0,3.84,1.75,3.84,3.9Z"/>
          </g>
        </g>
      </g>
      <g>
        <rect class="st39" x="1556.04" y="1481.57" width="45.42" height="5.12"/>
        <polyline class="st27" points="1642.09 1481.57 1607.4 1481.57 1607.4 1486.69 1642.09 1486.69"/>
        <polyline class="st58" points="1514.95 1495.7 1592.83 1495.7 1592.83 1490.58 1514.95 1490.58"/>
        <polyline class="st58" points="1536.13 1474.56 1614.01 1474.56 1614.01 1469.44 1536.13 1469.44"/>
        <rect class="st39" x="1598.93" y="1490.58" width="18.93" height="5.12"/>
        <polyline class="st27" points="1642.09 1490.58 1623.8 1490.58 1623.8 1495.7 1642.09 1495.7"/>
        <polyline class="st27" points="1642.09 1469.44 1619.83 1469.44 1619.83 1474.56 1642.09 1474.56"/>
        <polyline class="st58" points="1514.95 1504.7 1556.04 1504.7 1556.04 1499.58 1514.95 1499.58"/>
        <rect class="st39" x="1562.15" y="1499.58" width="55.71" height="5.12"/>
        <polyline class="st39" points="1530.82 1513.71 1556.04 1513.71 1556.04 1508.59 1530.82 1508.59"/>
        <polyline class="st27" points="1642.09 1508.59 1561.98 1508.59 1561.98 1513.71 1642.09 1513.71"/>
        <polyline class="st58" points="1514.95 1522.71 1549.93 1522.71 1549.93 1517.59 1514.95 1517.59"/>
        <rect class="st39" x="1556.04" y="1517.59" width="61.82" height="5.12"/>
        <polyline class="st27" points="1642.09 1517.59 1623.8 1517.59 1623.8 1522.71 1642.09 1522.71"/>
        <polyline class="st58" points="1514.95 1531.72 1573.53 1531.72 1573.53 1526.6 1514.95 1526.6"/>
        <rect class="st39" x="1579.64" y="1526.6" width="21.82" height="5.12"/>
        <polyline class="st27" points="1642.09 1526.6 1607.4 1526.6 1607.4 1531.72 1642.09 1531.72"/>
        <rect class="st39" x="1540.58" y="1535.6" width="77.28" height="5.12"/>
        <polyline class="st27" points="1642.09 1535.6 1623.8 1535.6 1623.8 1540.72 1642.09 1540.72"/>
      </g>
      <text class="st20" transform="translate(1514.95 1476.53) scale(.98 1)"><tspan x="0" y="0">&lt;/&gt;</tspan></text>
    </g>
    <g>
      <g>
        <g>
          <g>
            <path class="st45" d="M1504.02,1634.98c.03.27.06.55.07.81,0,0,0,.01,0,.02v.02c.17,3.86-1.87,6.79-8.52,5.58-.79-.14-1.48-.57-2.11-1.19h0s-3.81-3.78-6.01-8.16c-1.34-2.67-1.01-3.94-1.06-4.11-.47-.67-.87-1.16-1.17-1.39-.55-.41-1.2-.53-1.2-.53,0,0-.22.8.42,2.07s-1.37,3.2-2.83-.07c-1.21-2.73-.83-4.49.56-5.07-.35-.02-.7-.02-1.06,0-4.84.3-4.64-3.77.39-3.77.55,0,1.13.02,1.7.07-.04-.1-.07-.2-.09-.29-.31-.06-.63-.1-.95-.13-4.91-.4-3.65-4.46,1.13-3.61,1.31.23,2.69.63,4.03,1.13-.51-.38-1.03-.73-1.54-1-3.56-1.94-2.19-5.35,1.32-3.69,3.51,1.66,8.48,5.73,11.04,9.06,2.41,3.14,5.34,9.58,5.88,14.25Z"/>
            <path class="st11" d="M1488.44,1617.26c3.61,3.26,4.45,5.25,4.45,5.25"/>
            <path class="st11" d="M1483.53,1624.3s1.36.25,2.71,1.97"/>
          </g>
          <path class="st11" d="M1489.36,1630.07c-1.16-2.18-1.28-4.24-2.27-5.67-1.31-1.9-4.44-4.81-3.96-5.92.92-2.16,3.01-.84,5.28,1.09,2.26,1.93,6.3,4.45,8.09,3.59"/>
        </g>
        <g>
          <path class="st0" d="M1582.18,1625.78h0c-.68,2.05-1.53,4.29-2.59,6.7-2.52,5.76-6.23,12.52-11.68,19.9-2.11,2.85-4.46,5.78-7.11,8.79-.12.14-.25.29-.38.43-1.22,1.36-2.5,2.75-3.84,4.15-1.14,1.2-2.38,2.15-3.71,2.88l-11.5-13.73s.71-1.38,1.93-3.68c.35-.67.75-1.42,1.18-2.24.54-1.01,1.14-2.13,1.77-3.32.17-.31.33-.64.51-.96.41-.78.83-1.58,1.27-2.41,6.6-12.34,16.25-29.96,20.06-34.71,0-.01.02-.02.03-.03.41-.38.81-.74,1.19-1.08l6.44,2.53,3.47,1.36c.32.48.65,1.01.96,1.55.82,2.9,1.81,7.61,2.02,13.88Z"/>
          <path class="st0" d="M1559.46,1661.71c-.86,1.58-1.82,2.92-2.88,4.04-1.14,1.2-2.38,2.15-3.71,2.88-19.49,10.58-57.77-27.35-57.77-27.35l6.07-7.16,43.31,14.86,1.99.69,13,12.05Z"/>
          <path class="st24" d="M1659.05,1697.4l-83.88,1.38-5.86-86.96c-.56-4,.23-6.27,3.93-7.75,3.1-1.24,7.82-3.11,13.65-4.48,1.22-.28,2.49-.55,3.8-.78,3.28-.58,6.83-.95,10.58-.95l11.56-.81s4.08.08,9.59.61c2.21.2,4.66.48,7.17.85,2.56.38,5.18.85,7.68,1.44,5.35,1.27,8.81,6.54,7.95,12.06l13.82,85.4Z"/>
          <path class="st58" d="M1629.59,1598.5c-43.96,26.25-43.67,7.06-42.7,1.08,1.22-.28,2.49-.55,3.8-.78,3.28-.58,6.83-.95,10.58-.95l11.56-.81s4.08.08,9.59.61c2.21.2,4.66.47,7.17.85Z"/>
          <path class="st45" d="M1622.42,1597.66c-38.15,23.63-31.73,1.15-31.73,1.15,3.28-.58,6.83-.95,10.58-.95l11.56-.81s4.08.08,9.59.61Z"/>
          <g>
            <g>
              <path class="st40" d="M1573.76,1564.91s-6.85.1-6.17-5.69c.69-5.79,6.94-5.89,6.94-5.89l-.77,11.58Z"/>
              <path class="st40" d="M1618.32,1547.61c-1.86-1.8-4.35-2.52-6.81-2.32-1.09-8.91-14.65-9.56-21.57-8.69.05-.14.09-.27.14-.42.04-.07.07-.14.09-.24.53-2.39.86-5.64-.65-7.77-1.33-1.88-3.84-2.55-5.94-2.26-4.6.62-6.4,4.76-6.89,9.01-2.35-2.7-7.49-2.98-9.65.36-2.97,4.6.19,8.71,2.82,12.39-2.53.37-7.14,1.94-6.07,5.17,1.21,3.66,7.58,2.18,10.17,1.51.09-.02.17-.06.23-.11.51.17,1.17-.27.9-.93-1.03-2.53,9.85-3.33,11.29-3.45,3.76-.32,7.54-.66,11.31-.76,3.63-.1,7.07.38,9.32,3.75,2.21,3.31,3.87,7.18,5.7,10.72.01.03.03.04.04.07.22,2.69-.04,5.29-.77,7.89-.19.69.62,1.07,1.1.78,6-3.56,8.38-9.19,7.92-16.32-.2-3.09-.42-6.17-2.71-8.39Z"/>
            </g>
            <g>
              <path class="st45" d="M1614.23,1600.02c-14.53,3.91-23.01,7.29-20.97,1.48l.45-2.25.11-.59,1.25-6.3,1.2-6.05.59-2.93,15.49-1.39.83,7.93.34,3.27.71,6.84Z"/>
              <path class="st36" d="M1613.52,1593.18c-1.95.78-16.11,6.39-19.81,6.06l.11-.59,1.25-6.3,17.42-9,1.04,9.82Z"/>
            </g>
            <path class="st0" d="M1573.18,1565.29c.04.61.08,1.21.13,1.83.03.38.07.76.11,1.14.25,2.46.63,4.7,1.09,6.71.57,2.48,1.31,4.64,2.15,6.53.68,1.52,1.44,2.86,2.27,4.05,5.29,7.64,13.02,8.47,18.14,7.98,5.91-.56,14.93-3.5,17.86-15.68.89-3.64,1.23-8.12.77-13.6-.04-.57-.09-1.13-.16-1.68-.05-.61-.13-1.21-.21-1.79-1.82-13.38-7.84-23.52-23.31-22.06-15.66,1.49-19.64,12.87-18.85,26.58Z"/>
            <g>
              <path class="st40" d="M1605.45,1553.33s-1.8,15.84,3.27,19.25c0,0,5.53,3.76,6.7-11.24l-9.97-8.01Z"/>
              <path class="st40" d="M1607.25,1559.5s-9.05,1.78-9.82-5.88c0,0-5.41,5.5-11.29.22,0,0-1.19,4.87-8.56,3.8,0,0,1.65,6.44-4.42,7.25l-1.67-3.45.87-7.58,2.16-5.18,5.22-6.6,5.53-2.71,7.01-1.19h5.85l7.01,1.58,5.14,4.82,4.23,5.68,1.18,11.03-1.14.95-7.3-2.74Z"/>
            </g>
            <g>
              <path class="st45" d="M1609.23,1568.46c.02,1.38.3,2.8.65,4.12.15.6.33,1.17.49,1.7,0,0,0,.02,0,.02.02.08.05.16.07.24.04.13.1.26.17.36.09.16.22.28.36.37,1.24,1.55,3.46,1.91,5.43,1.17.61-.22,1.2-.56,1.73-1.01,1.79-1.5,2.95-3.4,3.34-5.45.31-1.7.1-3.51-.75-5.26-.32-.65-.68-1.22-1.1-1.68-.54-.62-1.17-1.07-1.85-1.35-.38-.17-.79-.28-1.2-.34-1.55-.22-3.29.3-4.95,1.46-.58.4-1.04.88-1.39,1.41-.81,1.22-1.07,2.71-1.02,4.26Z"/>
              <path class="st14" d="M1613.39,1573.38s-2.96-9.79,4.7-7.28"/>
              <line class="st14" x1="1612.86" y1="1570.37" x2="1616.16" y2="1568.85"/>
            </g>
            <g>
              <g>
                <g>
                  <path class="st14" d="M1589.96,1579.37l-7.64.76c6.21-1.06,4.47-10.6,4.47-10.6"/>
                  <g>
                    <g class="st32">
                      <path class="st36" d="M1597.05,1586.65c.83,1.27-4.47,2.8-5.07,1.56-.6-1.24,4.21-2.87,5.07-1.56Z"/>
                    </g>
                    <path class="st14" d="M1599.52,1579c-1.76,4.25-6.75,5.83-11.63,5.35"/>
                  </g>
                </g>
                <g>
                  <g>
                    <path class="st40" d="M1577.86,1570.2c.15,1.45,1.06,2.54,2.04,2.44s1.66-1.36,1.51-2.81c-.14-1.45-1.06-2.54-2.04-2.44-.98.1-1.66,1.36-1.51,2.81Z"/>
                    <path class="st40" d="M1594.44,1568.48c.14,1.45,1.06,2.54,2.04,2.44s1.66-1.36,1.51-2.81c-.14-1.45-1.06-2.54-2.04-2.44s-1.66,1.36-1.51,2.81Z"/>
                  </g>
                  <g>
                    <path class="st40" d="M1593.53,1565.19c5.16.29,8.08-1.16,3.62-1.79-4.45-.62-6.3,1.64-3.62,1.79Z"/>
                    <path class="st40" d="M1581.04,1564.1c-4.57,2.47-7.81,2.39-4.03-.08,3.78-2.46,6.4-1.2,4.03.08Z"/>
                  </g>
                </g>
              </g>
              <path class="st27" d="M1601.03,1565.72c-.76-1.25-1.87-2.27-3.19-2.91-.15-.08-.31-.15-.47-.21-.74-.31-1.55-.5-2.39-.55-.15-.01-.3-.02-.46-.02-1.01,0-1.97.2-2.85.56-1.51.62-2.79,1.73-3.64,3.12-.57.94-.95,2.01-1.09,3.15h-4.2c-.13-1.14-.51-2.21-1.09-3.15-.85-1.39-2.13-2.5-3.65-3.12-.88-.36-1.84-.56-2.85-.56s-1.97.2-2.85.56c-1.31.53-2.43,1.42-3.26,2.55-.13.18-.27.37-.38.58-.67,1.07-1.07,2.33-1.14,3.67,0,.14-.01.27-.01.41,0,.45.04.89.11,1.32.15.84.42,1.63.8,2.35h0c.14.27.3.53.47.78,1.03,1.49,2.57,2.6,4.35,3.07.54.14,1.1.22,1.67.24.08,0,.15,0,.23,0,2.61,0,4.91-1.34,6.29-3.31.51-.73.9-1.54,1.12-2.42.06-.23.11-.47.15-.71.05-.35.08-.71.08-1.07h4.09c0,.36.03.72.09,1.07.03.24.08.48.15.71.22.87.61,1.69,1.11,2.42,1.37,1.98,3.68,3.31,6.29,3.31.12,0,.24,0,.36-.01,1.04-.05,2.03-.31,2.91-.74h0c1.02-.49,1.9-1.2,2.61-2.08.13-.15.24-.31.36-.48.63-.91,1.07-1.98,1.27-3.13.08-.43.12-.87.12-1.32,0-1.49-.42-2.89-1.14-4.08ZM1581.6,1571.83c-.27.9-.73,1.72-1.32,2.42-1.23,1.47-3.06,2.39-5.11,2.39h-.16c-1.97-.05-3.74-.97-4.94-2.39-.74-.88-1.27-1.95-1.49-3.13-.09-.43-.13-.87-.13-1.32,0-1.53.49-2.94,1.33-4.08,1.23-1.68,3.19-2.77,5.4-2.77s4.18,1.09,5.4,2.77c.83,1.14,1.33,2.55,1.33,4.08,0,.45-.04.9-.13,1.32-.04.24-.1.48-.17.71ZM1599.64,1574.25c-1.17,1.39-2.89,2.3-4.81,2.39-.1,0-.2,0-.3,0-2.04,0-3.88-.93-5.11-2.39-.59-.7-1.04-1.52-1.32-2.42-.07-.23-.13-.47-.17-.71-.09-.43-.13-.87-.13-1.32,0-1.53.49-2.94,1.33-4.08,1.23-1.68,3.19-2.77,5.4-2.77s4.18,1.09,5.4,2.77c.84,1.14,1.33,2.55,1.33,4.08,0,.45-.04.9-.13,1.32-.23,1.18-.76,2.25-1.5,3.13Z"/>
            </g>
          </g>
          <g>
            <path class="st0" d="M1650.95,1610.45h0c2.53,6.84,5.03,16.68,5.6,29.75.16,3.72.17,7.71-.02,11.96-.15,3.31-.42,6.78-.83,10.41l-.14-.03-17.93-3.25s-.31-1.53-.82-4.08c-.32-1.67-.74-3.79-1.2-6.2-.24-1.18-.48-2.44-.73-3.76-2.95-15.48-7.07-38.58-6.06-41.36l10.17-3.43c.55.16,1.13.36,1.7.58,2.45,1.7,6.16,4.7,10.24,9.4Z"/>
            <path class="st0" d="M1638.38,1654.77l-45.7,14.28-.82,9.41s67.72,10.32,63.99-21.63l-17.47-2.06Z"/>
            <g>
              <path class="st45" d="M1578.38,1676.82s-3.42.06-6.57,1.28c-3.15,1.21-3.18-2.2-.36-3.3,0,0-1.65.18-3.64,1.14-1.99.96-2.99-1.26-1.94-2.43,0,0-1.38.52-2.06-.79s.74-2.63,1.28-3.02c0,0-2.56-2.28,2.89-4.7,5.45-2.42,12.7-3.75,21.8.86,6.26,3.17,6.65,8.16,5.18,10.75-2.67,4.71-10.97,5.47-16.58.21Z"/>
              <path class="st11" d="M1571.46,1674.8c4.73-1.77,6.94-1.58,6.94-1.58"/>
              <path class="st11" d="M1565.88,1673.51c7.26-3.65,10.98-3.36,10.98-3.36"/>
              <path class="st11" d="M1565.1,1669.7c4.54-2.94,10.72-3.27,10.72-3.27"/>
            </g>
          </g>
          <path class="st24" d="M1663.41,1652.48l-6.87-.31-25.33-.69.03-1.26-6.3-48.19,5.12-2.41s3.86-.66,8.96.86c.55.16,1.13.36,1.7.58,9.65,3.65,22.42,14.71,22.7,51.43Z"/>
          <path class="st24" d="M1572.06,1604.62s-17.21,9.08-27.56,38.98l21.38,20.34,11.8-14.92-5.62-44.41Z"/>
          <line class="st11" x1="1632.81" y1="1656.51" x2="1639.03" y2="1654.53"/>
          <line class="st11" x1="1538.91" y1="1647.06" x2="1547.55" y2="1650.05"/>
          <g>
            <path class="st6" d="M1572.28,1655.85s-1.22-20.96,0-30.39"/>
            <line class="st6" x1="1572.01" y1="1632.45" x2="1569.63" y2="1627.68"/>
          </g>
          <g>
            <polyline class="st6" points="1636.12 1651.6 1632.81 1651.51 1627.35 1620.55"/>
            <line class="st6" x1="1628.19" y1="1625.28" x2="1625.42" y2="1622.47"/>
          </g>
        </g>
      </g>
      <g>
        <g>
          <path class="st40" d="M1709.14,1565.54s-13.2,4.45-9.41,16.84c0,0-10.12-1.24-12.86,12.33,0,0-15.39-.59-14.54,15.49s18.39,7.75,18.39,7.75c0,0,4.47,14.45,16.55,7.32,0,0,7.49,10.35,15.79,0l-13.91-59.72Z"/>
          <path class="st40" d="M1746.18,1570.6s11.05,8.58,3.49,19.04c0,0,9.96,2.19,8.2,15.92,0,0,14.73,4.54,8.78,19.47-5.96,14.92-19.87,1.23-19.87,1.23,0,0-8.87,12.18-17.99,1.43,0,0-10.4,7.3-14.92-5.24l32.32-51.84Z"/>
          <path class="st40" d="M1751.94,1572.25c-.14.84-.31,1.7-.52,2.6-.48,2.12-1.14,4.38-1.98,6.79-.02.05-.03.1-.06.15-.32.92-.67,1.87-1.05,2.83-.44,1.13-1.48,1.9-2.66,1.95l-30.53,1.1c-2.35.08-3.77-2.66-4.58-4.94-3.19-9.01-9.32-30.15,12.36-37.32,3.79-1.25,7.83-1.5,11.73-.7,8.1,1.66,20.79,7.43,17.28,27.55Z"/>
        </g>
        <g>
          <path class="st51" d="M1744.06,1663.91c-.33,1.65-.43,3.19-.34,4.64.1,1.56.41,2.99.94,4.32,7.58,19.48,57.3,15.98,57.3,15.98l-.07-8.81-39.61-16-1.82-.73-16.39.59Z"/>
          <g>
            <path class="st51" d="M1761.18,1668.81l-14.85,7.41c-.88-1.12-1.59-2.4-2.13-3.86-.64-1.7-1.22-3.37-1.77-5-.05-.17-.11-.34-.17-.51-1.17-3.57-2.11-6.97-2.87-10.2-1.97-8.37-2.67-15.55-2.73-21.43-.03-2.47.07-4.7.23-6.7h0c2.47-5.29,5.04-8.95,6.8-11.12.46-.34.93-.67,1.38-.96l.5.02,2.96.12,4.86.2c.6.73,1.21,1.56,1.83,2.48.31.46.62.94.93,1.45,1.4,7.36,2.94,23.29,3.95,34.8.07.88.14,1.72.21,2.54.04.34.06.68.09,1.01.03.32.06.64.08.96.08.9.15,1.76.22,2.55.07.87.14,1.65.2,2.36.2,2.43.31,3.87.31,3.87Z"/>
            <line class="st9" x1="1758.97" y1="1662.78" x2="1763.87" y2="1664.69"/>
          </g>
          <g>
            <g>
              <path class="st51" d="M1798.61,1678.77c-.19.17-.36.35-.53.54h-.01s0,.02-.01.03c-2.41,2.63-2.7,5.98,2.74,9.19.64.38,1.39.5,2.2.45h0s4.95-.34,9.11-2.12c2.53-1.08,3.06-2.19,3.2-2.27.73-.19,1.31-.29,1.66-.27.63.04,1.17.36,1.17.36,0,0-.31.7-1.53,1.22-1.21.52-.92,3.12,2.05,1.68,2.48-1.2,3.25-2.69,2.61-3.95.26.2.51.42.75.65,3.26,3.18,5.54.16,1.96-2.92-.39-.34-.81-.67-1.25-1,.09-.05.17-.1.24-.15.26.15.51.31.75.49,3.73,2.73,5.24-.93,1.34-3.26-1.07-.64-2.29-1.2-3.53-1.67.59.04,1.16.12,1.69.23,3.68.8,4.73-2.46,1.25-3.44s-9.43-1.13-13.23-.33c-3.58.75-9.48,3.53-12.63,6.53Z"/>
              <path class="st9" d="M1820.2,1675.72c-4.5.1-6.28,1-6.28,1"/>
              <path class="st9" d="M1819.52,1683.74s-1.11-.65-3.09-.26"/>
            </g>
            <path class="st9" d="M1811.96,1684.26c2.12-.83,3.43-2.23,4.98-2.64,2.06-.55,6.01-.7,6.33-1.78.62-2.1-1.64-2.45-4.4-2.46-2.75-.02-7.12-.7-7.88-2.41"/>
          </g>
        </g>
        <path class="st39" d="M1756.54,1616.6c.01.26,0,.53-.04.8l-2.94,43.61-2.53,37.48-78.21-1.28,12.89-79.63c-.8-5.15,2.42-10.06,7.41-11.24,2.33-.55,4.78-.99,7.16-1.34.58-.08,1.15-.16,1.72-.24,1.2-.16,2.37-.29,3.48-.4.51-.05,1-.1,1.48-.14.35-.03.69-.07,1.03-.09,4.61-.41,7.91-.48,7.91-.48l10.78.76c2.14,0,4.21.13,6.2.35.15.01.3.03.44.05.1.01.19.02.28.03.26.04.52.07.78.1.74.1,1.46.22,2.17.35.66.12,1.31.24,1.94.37h0c.54.12,1.07.23,1.6.35,1.81.42,3.5.89,5.06,1.38.75.23,1.23.38,1.56.47.01,0,.04,0,.06.01.28.08.44.12.56.16.03,0,.06.01.1.03.13.04.23.08.47.18.03.01.07.03.1.05,1.76.76,5.05,2.83,8.52,8.32Z"/>
        <g>
          <g>
            <path class="st27" d="M1731.04,1614.3l2.24-9.38c.07.02.08-.03.06-.12.1.01.19.02.28.03.26.04.52.07.78.1.74.1,1.46.22,2.17.35.66.12,1.31.24,1.94.37h0c.54.12,1.07.23,1.6.35,10.61,13.55-9.08,8.29-9.08,8.29Z"/>
            <path class="st27" d="M1731.61,1613.49s-.23.47-.69,1.16c-2.57,3.91-12.36,15.04-28.9-9.9,1.2-.16,2.37-.29,3.48-.4.51-.05,1-.1,1.48-.14.35-.03.69-.07,1.03-.09l22.99,9.14.6.24Z"/>
          </g>
          <path class="st51" d="M1705.5,1604.35c.51-.05,1-.1,1.48-.14,5.14-.49,8.94-.57,8.94-.57l10.78.76c2.14,0,4.21.13,6.2.35.49.08.99.16,1.47.24,0,0,5.9,20.68-28.88-.64Z"/>
        </g>
        <g class="st32">
          <path class="st31" d="M1727.35,1595.16c-.78,1.18,4.16,2.61,4.73,1.45.56-1.16-3.93-2.68-4.73-1.45Z"/>
        </g>
        <path class="st39" d="M1767.32,1653.45s-3.05,2-6.68,4.06c-2.33,1.32-4.91,2.66-7.07,3.51-1.86.72-3.42,1.08-4.25.74l-2.35-48.23-.28-5.67s.01,0,.04,0c.01,0,.04,0,.06.01.11.02.3.07.56.16.03,0,.06.01.1.03.14.05.3.11.47.18.03.01.07.03.1.05,1.46.63,3.97,2.16,6.76,5.79.58.75,1.16,1.59,1.76,2.53.3.47.59.96.89,1.48,3.8,6.63,7.68,17.5,9.89,35.37Z"/>
        <g>
          <path class="st13" d="M1750.19,1628.64s5.99,17.52,3.38,32.37"/>
          <line class="st13" x1="1751.43" y1="1632.89" x2="1752.91" y2="1629.69"/>
        </g>
        <g>
          <path class="st51" d="M1686.47,1610.15s.09-.07.13-.1c.32-.24.62-.46.91-.65.54-.2,1.07-.38,1.58-.53l9.49,3.2c.94,2.59-2.91,24.13-5.65,38.57-.24,1.23-.46,2.4-.68,3.5-.39,2.02-.74,3.8-1.03,5.28-.03.18-.06.35-.1.51-.47,2.38-.76,3.8-.76,3.8l-16.72,3.03-.13.03c-.24-2.19-.44-4.32-.58-6.39-.08-1.13-.14-2.23-.19-3.32-.18-3.97-.17-7.68-.02-11.15.48-10.88,2.39-19.36,4.48-25.59l9.26-10.17Z"/>
          <path class="st51" d="M1690.2,1659.57l40.6,18.7-.34,8.8s-63.83,1.4-56.66-27.7l16.4.19Z"/>
          <g>
            <path class="st51" d="M1743.12,1687.18s3.16.47,5.93,1.97c2.77,1.5,3.2-1.66.72-3.01,0,0,1.5.36,3.23,1.49,1.73,1.13,2.92-.8,2.08-2.01,0,0,1.21.64,2-.48s-.37-2.53-.84-2.95c0,0,2.63-1.8-2.13-4.7-4.76-2.9-11.31-5-20.26-1.83-6.16,2.18-7.1,6.75-6.04,9.32,1.93,4.67,9.51,6.37,15.31,2.19Z"/>
            <path class="st9" d="M1749.77,1686.14c-4.17-2.21-6.24-2.3-6.24-2.3"/>
            <path class="st9" d="M1755.07,1685.62c-6.29-4.24-9.76-4.42-9.76-4.42"/>
            <path class="st9" d="M1756.24,1682.19c-3.86-3.27-9.54-4.31-9.54-4.31"/>
          </g>
          <line class="st9" x1="1693.13" y1="1660.92" x2="1688.26" y2="1658.66"/>
        </g>
        <path class="st39" d="M1692.53,1606.51s-22.72,6.31-28.03,50.73c0,0,20.36,1.99,30.39-1.33l7.13-44.64-9.49-4.76Z"/>
        <g>
          <polyline class="st13" points="1691.76 1656.72 1694.89 1655.9 1696.67 1629.86"/>
          <line class="st13" x1="1696.31" y1="1635.22" x2="1699.06" y2="1632.17"/>
        </g>
        <g>
          <g>
            <path class="st51" d="M1711.34,1607.22c13.55,3.64,21.45,6.8,19.55,1.38l-.42-2.1-.11-.55-1.16-5.87-1.12-5.64-.55-2.74-14.45-1.3-.77,7.4-.32,3.05-.66,6.38Z"/>
            <path class="st18" d="M1712,1600.84c1.81.73,15.02,5.96,18.47,5.65l-.11-.55-1.16-5.87-16.24-8.39-.97,9.16Z"/>
          </g>
          <path class="st51" d="M1749.61,1574.84c-.04.57-.07,1.13-.12,1.71-.03.35-.06.71-.1,1.06-.24,2.29-.59,4.38-1.02,6.25-.54,2.32-1.22,4.33-2,6.09-.63,1.42-1.34,2.67-2.12,3.77-4.93,7.13-12.14,7.9-16.92,7.44-5.51-.52-13.92-3.27-16.66-14.62-.83-3.39-1.14-7.57-.72-12.68.04-.53.09-1.05.15-1.57.05-.57.12-1.13.2-1.67,1.69-12.48,7.31-21.93,21.73-20.57,14.6,1.39,18.31,12,17.58,24.78Z"/>
          <path class="st9" d="M1733.97,1587.96l7.12.71c-5.79-.99-4.17-9.89-4.17-9.89"/>
          <g>
            <path class="st40" d="M1745.25,1579.41c-.14,1.35-.98,2.37-1.9,2.27-.91-.1-1.54-1.27-1.41-2.62.14-1.35.98-2.37,1.9-2.27.91.1,1.54,1.27,1.41,2.62Z"/>
            <path class="st40" d="M1729.79,1577.81c-.14,1.35-.98,2.37-1.9,2.27-.91-.1-1.54-1.27-1.41-2.62s.98-2.37,1.9-2.27c.91.1,1.54,1.27,1.41,2.62Z"/>
          </g>
          <g>
            <path class="st40" d="M1742.1,1571.68c-1.17,1.61,4.38,3.56,5.29,1.98.91-1.57-4.09-3.64-5.29-1.98Z"/>
            <path class="st40" d="M1729.82,1569.68c.84,1.81-4.97,2.63-5.57.91-.6-1.72,4.7-2.78,5.57-.91Z"/>
          </g>
          <g>
            <path class="st52" d="M1727.48,1589.04c.03.99.32,1.94.83,2.76.72,1.15,1.85,2.03,3.26,2.38,1.27.32,2.55.15,3.64-.39.97-.48,1.79-1.25,2.33-2.23l-10.05-2.51Z"/>
            <path class="st53" d="M1728.31,1591.8c.72,1.15,1.85,2.03,3.26,2.38,1.27.32,2.55.15,3.64-.39-.38-1.16-1.57-2.19-3.15-2.59-1.44-.36-2.85-.1-3.74.61Z"/>
          </g>
          <path class="st40" d="M1751.94,1572.25c-.14.84-.31,1.7-.52,2.6-.48,2.12-1.14,4.38-1.98,6.79-.02.05-.03.1-.06.15-2.62-4.3-.71-14.47-.71-14.47-8.04-.82-13.27-7.26-13.27-7.26-5.71,2.79-14.32,1.84-14.32,1.84-1.67,8.74-5.37,12.99-7.24,14.65-.45.4-1.14.07-1.14-.53l-.02-2.87-3.54-2,1.93-7.82,2.32-7.37,10.27-6.67,15.9.91,5.41,4.95,6.02,7.28.94,9.83Z"/>
          <g>
            <path class="st51" d="M1715.05,1573.82c-.33-.49-.76-.93-1.3-1.31-1.55-1.08-3.16-1.56-4.61-1.36-.39.05-.77.15-1.12.32-.63.26-1.21.68-1.72,1.26-.39.43-.73.96-1.02,1.57-.79,1.64-.99,3.32-.7,4.9.36,1.91,1.44,3.69,3.11,5.08.49.42,1.05.73,1.62.94,1.84.69,3.91.35,5.07-1.09.13-.08.25-.2.33-.35.07-.09.12-.21.16-.33.02-.08.05-.15.07-.22,0,0,0,0,0-.02.15-.49.31-1.03.46-1.58.33-1.23.58-2.55.61-3.84.05-1.44-.19-2.84-.95-3.97Z"/>
            <path class="st9" d="M1712.12,1582.38s2.76-9.13-4.38-6.79"/>
            <line class="st9" x1="1712.62" y1="1579.58" x2="1709.54" y2="1578.16"/>
          </g>
          <g>
            <path class="st27" d="M1721.8,1558.42l-2.03.51c-.23.06-.36.3-.28.53l1.78,5.07c.06.18.25.29.44.26l.59-.09c.2-.03.35-.22.34-.43l-.34-5.49c-.02-.25-.25-.43-.49-.37Z"/>
            <path class="st27" d="M1751.16,1564.77l-1.81-1.05c-.2-.12-.47-.03-.56.19l-2.16,4.92c-.08.18-.02.39.14.5l.49.34c.17.12.4.09.53-.07l3.49-4.21c.16-.19.11-.49-.11-.61Z"/>
          </g>
        </g>
        <path class="st13" d="M1753.57,1661.02"/>
        <g>
          <path class="st13" d="M1753.57,1661.02"/>
          <path class="st13" d="M1750.19,1628.64"/>
          <path class="st13" d="M1751.43,1632.89"/>
        </g>
        <g>
          <g>
            <path class="st27" d="M1731.75,1614.79c-.05-.35-.37-.48-.63-.42-.2-.14-.48-.17-.68.08-2.4,2.93-4.3,6.55-4.69,10.39-.24,2.29.2,5.53,2.61,6.54,2.2.91,3.85-1.41,4.44-3.29,1.27-4.07-.44-9.24-1.05-13.3ZM1727.63,1629.45c-1.68-1.83-.87-5.42-.21-7.5.74-2.33,1.93-4.42,3.42-6.33.37,2.43.78,4.87,1.09,7.31.15,1.15.3,2.34.16,3.51-.19,1.58-1.66,6.05-4.46,3.02Z"/>
            <path class="st27" d="M1735.37,1627.59c1.24,1.53,3.62,3.06,5.33,1.38,1.87-1.84,1.09-5.02.03-7.06-1.77-3.42-4.86-6.07-8.16-7.87-.28-.15-.53-.02-.66.18-.27.05-.51.28-.43.63.92,3.99,1.22,9.45,3.89,12.74ZM1735.42,1625.78c-.56-1.03-.85-2.19-1.13-3.32-.6-2.38-1.12-4.79-1.66-7.19,2.07,1.21,3.95,2.7,5.49,4.58,1.38,1.69,3.45,4.71,2.55,7.04-1.49,3.88-4.49.28-5.24-1.12Z"/>
          </g>
          <path class="st27" d="M1733.82,1621.63c-.04-.67-1.07-.67-1.03,0,.56,8.84.41,17.67-.44,26.49-.06.67.96.66,1.03,0,.85-8.81,1-17.65.44-26.49Z"/>
          <path class="st27" d="M1732.58,1622.62c-.18-.64.78-1,.96-.36,2.43,8.5,5.53,16.76,9.28,24.75.28.61-.68.96-.96.36-3.75-7.99-6.85-16.25-9.28-24.75Z"/>
        </g>
      </g>
    </g>
    <g>
      <rect class="st27" x="1656.97" y="1680.34" width="3.48" height="7.59"/>
      <rect class="st27" x="1656.97" y="1693.94" width="3.48" height="7.59"/>
      <rect class="st27" x="1662.18" y="1689.05" width="7.47" height="3.54"/>
      <rect class="st27" x="1648.05" y="1689.05" width="7.47" height="3.54"/>
    </g>
    <g>
      <ellipse class="st48" cx="1653.29" cy="1717.56" rx="211.49" ry="23.11"/>
      <g>
        <g>
          <path class="st46" d="M1470.34,1712v1.74c0,2.2,1.69,4.01,3.85,4.12l87.13,4.74c2.34.13,4.69-.25,6.88-1.1l30.81-11.98c1.57-.61,2.61-2.15,2.61-3.86v-4.61l-131.27,10.94Z"/>
          <g>
            <polygon class="st29" points="1564.87 1715.26 1601.61 1701.05 1496.63 1697.86 1470.34 1712 1564.87 1715.26"/>
            <g>
              <polygon class="st34" points="1583.45 1706.11 1578.25 1708.08 1577.4 1708.41 1572.19 1710.38 1571.34 1710.7 1571.33 1710.7 1564.51 1713.3 1563.15 1710.45 1563.03 1710.22 1562.97 1710.09 1562.88 1709.89 1560.7 1705.36 1573.76 1705.79 1573.77 1705.79 1574.71 1705.82 1574.71 1705.82 1583.45 1706.11"/>
              <g>
                <polygon class="st29" points="1578.25 1708.08 1577.4 1708.41 1568.57 1708.13 1567.62 1708.1 1563.09 1707.96 1563.1 1707.61 1568.48 1707.78 1569.43 1707.81 1578.25 1708.08"/>
                <polygon class="st29" points="1572.19 1710.38 1571.34 1710.7 1571.33 1710.7 1563.15 1710.45 1563.03 1710.22 1562.86 1710.28 1562.79 1710.09 1562.97 1710.09 1563.33 1710.11 1572.19 1710.38"/>
                <polygon class="st29" points="1574.71 1705.82 1569.44 1707.81 1569.43 1707.81 1568.58 1708.13 1568.57 1708.13 1563.33 1710.11 1563.03 1710.22 1562.86 1710.28 1562.79 1710.09 1562.74 1709.94 1562.88 1709.89 1567.62 1708.1 1568.48 1707.78 1573.76 1705.79 1573.77 1705.79 1574.71 1705.82"/>
              </g>
            </g>
          </g>
        </g>
        <g>
          <path class="st46" d="M1564.85,1715.78l-94.53-3.27-8.03-58.22c-.86-6.25,3.36-11.14,9.42-10.93l72.57,2.51c6.06.21,11.68,5.44,12.54,11.69l8.03,58.22Z"/>
          <ellipse class="st39" cx="1510.03" cy="1686.47" rx="6.8" ry="6.91"/>
        </g>
      </g>
      <g>
        <g>
          <g>
            <g>
              <polygon class="st49" points="1860.4 1697.66 1749.36 1697.66 1758.53 1621.73 1869.57 1621.73 1860.4 1697.66"/>
              <polygon class="st24" points="1865.06 1697.66 1754.02 1697.66 1763.19 1621.73 1874.23 1621.73 1865.06 1697.66"/>
            </g>
            <g>
              <polygon class="st24" points="1796.16 1715.42 1818.97 1709.2 1821.38 1716.19 1796.16 1715.42"/>
              <path class="st49" d="M1803.14,1667.61h18.02l11.64,39.22c1.83,6.18-2.72,12.41-9.07,12.41h-6.57l-14.02-51.63Z"/>
              <path class="st58" d="M1806.35,1667.61h18.02l12.47,42.03c1.42,4.78-2.1,9.6-7.02,9.6h-9.46l-14.02-51.63Z"/>
              <rect class="st58" x="1796.16" y="1715.4" width="25.22" height="3.83"/>
            </g>
          </g>
          <ellipse class="st49" cx="1814.14" cy="1651.46" rx="7.82" ry="7.95"/>
        </g>
        <g>
          <g>
            <g>
              <rect class="st49" x="1712.43" y="1702.27" width="10.36" height="4.19"/>
              <rect class="st49" x="1726.58" y="1702.27" width="10.36" height="4.19"/>
              <rect class="st49" x="1740.73" y="1702.27" width="10.36" height="4.19"/>
              <rect class="st49" x="1754.89" y="1702.27" width="10.36" height="4.19"/>
              <rect class="st49" x="1769.04" y="1702.27" width="10.36" height="4.19"/>
              <rect class="st49" x="1783.19" y="1702.27" width="10.36" height="4.19"/>
              <rect class="st49" x="1797.34" y="1702.27" width="10.36" height="4.19"/>
            </g>
            <rect class="st58" x="1710.18" y="1705" width="99.59" height="5.76"/>
          </g>
          <g>
            <path class="st24" d="M1704.33,1710.71h-35.86c-.88,0-1.48-.91-1.14-1.74,2.41-5.87,12.27-23.32,37.82-.44.85.76.31,2.19-.82,2.19Z"/>
            <line class="st8" x1="1705.15" y1="1708.52" x2="1692.52" y2="1699.63"/>
          </g>
        </g>
      </g>
    </g>
    <g>
      <g>
        <g>
          <rect class="st27" x="1683.81" y="1443.28" width="3.48" height="7.59"/>
          <rect class="st27" x="1683.81" y="1456.87" width="3.48" height="7.59"/>
          <rect class="st27" x="1689.02" y="1451.98" width="7.47" height="3.54"/>
          <rect class="st27" x="1674.88" y="1451.98" width="7.47" height="3.54"/>
        </g>
        <g>
          <rect class="st27" x="1552.01" y="1430.8" width="3.48" height="7.59"/>
          <rect class="st27" x="1552.01" y="1444.39" width="3.48" height="7.59"/>
          <rect class="st27" x="1557.22" y="1439.5" width="7.47" height="3.54"/>
          <rect class="st27" x="1543.09" y="1439.5" width="7.47" height="3.54"/>
        </g>
        <g>
          <rect class="st27" x="1786.17" y="1561.61" width="3.48" height="7.59"/>
          <rect class="st27" x="1786.17" y="1575.2" width="3.48" height="7.59"/>
          <rect class="st27" x="1791.38" y="1570.31" width="7.47" height="3.54"/>
          <rect class="st27" x="1777.24" y="1570.31" width="7.47" height="3.54"/>
        </g>
        <g>
          <rect class="st27" x="1685.46" y="1777.45" width="3.48" height="7.59"/>
          <rect class="st27" x="1685.46" y="1791.04" width="3.48" height="7.59"/>
          <rect class="st27" x="1690.67" y="1786.15" width="7.47" height="3.54"/>
          <rect class="st27" x="1676.54" y="1786.15" width="7.47" height="3.54"/>
        </g>
        <g>
          <rect class="st27" x="1857.89" y="1712.19" width="3.48" height="7.59"/>
          <rect class="st27" x="1857.89" y="1725.79" width="3.48" height="7.59"/>
          <rect class="st27" x="1863.1" y="1720.9" width="7.47" height="3.54"/>
          <rect class="st27" x="1848.97" y="1720.9" width="7.47" height="3.54"/>
        </g>
        <g>
          <rect class="st27" x="1488.14" y="1742.88" width="3.48" height="7.59"/>
          <rect class="st27" x="1488.14" y="1756.48" width="3.48" height="7.59"/>
          <rect class="st27" x="1493.35" y="1751.59" width="7.47" height="3.54"/>
          <rect class="st27" x="1479.22" y="1751.59" width="7.47" height="3.54"/>
        </g>
        <g>
          <rect class="st27" x="1539.48" y="1592.17" width="3.48" height="7.59"/>
          <rect class="st27" x="1539.48" y="1605.76" width="3.48" height="7.59"/>
          <rect class="st27" x="1544.69" y="1600.87" width="7.47" height="3.54"/>
          <rect class="st27" x="1530.56" y="1600.87" width="7.47" height="3.54"/>
        </g>
      </g>
      <g>
        <g>
          <g>
            <g>
              <path class="st46" d="M1788.88,1758.72v54.87c0,2.33-1.86,4.23-4.16,4.23h-87.98c-2.3,0-4.16-1.89-4.16-4.23v-54.87c0-2.33,1.86-4.23,4.16-4.23h87.98c2.3,0,4.16,1.89,4.16,4.23Z"/>
              <g>
                <path class="st58" d="M1788.88,1758.72v4.37h-96.3v-4.37c0-2.33,1.86-4.23,4.16-4.23h87.98c2.3,0,4.16,1.89,4.16,4.23Z"/>
                <g>
                  <path class="st54" d="M1711.61,1758.79c0,1.33-1.06,2.41-2.37,2.41s-2.37-1.08-2.37-2.41,1.06-2.41,2.37-2.41c1.31,0,2.37,1.08,2.37,2.41Z"/>
                  <path class="st39" d="M1705.43,1758.79c0,1.33-1.06,2.41-2.37,2.41s-2.37-1.08-2.37-2.41,1.06-2.41,2.37-2.41,2.37,1.08,2.37,2.41Z"/>
                  <path class="st15" d="M1699.09,1758.79c0,1.33-1.06,2.41-2.37,2.41s-2.37-1.08-2.37-2.41,1.06-2.41,2.37-2.41,2.37,1.08,2.37,2.41Z"/>
                </g>
              </g>
            </g>
            <text class="st16" transform="translate(1705.43 1801.52) scale(.98 1)"><tspan x="0" y="0">C++</tspan></text>
          </g>
          <g>
            <g>
              <path class="st46" d="M1808.27,1434.26v42.55c0,1.81-1.44,3.28-3.22,3.28h-68.22c-1.78,0-3.22-1.47-3.22-3.28v-42.55c0-1.81,1.44-3.28,3.22-3.28h68.22c1.78,0,3.22,1.47,3.22,3.28Z"/>
              <g>
                <path class="st58" d="M1808.27,1434.26v3.39h-74.67v-3.39c0-1.81,1.44-3.28,3.22-3.28h68.22c1.78,0,3.22,1.47,3.22,3.28Z"/>
                <g>
                  <path class="st54" d="M1748.35,1434.31c0,1.03-.82,1.87-1.84,1.87s-1.84-.84-1.84-1.87.82-1.87,1.84-1.87c1.01,0,1.84.84,1.84,1.87Z"/>
                  <path class="st39" d="M1743.56,1434.31c0,1.03-.82,1.87-1.84,1.87s-1.84-.84-1.84-1.87.82-1.87,1.84-1.87c1.01,0,1.84.84,1.84,1.87Z"/>
                  <path class="st15" d="M1738.64,1434.31c0,1.03-.82,1.87-1.84,1.87s-1.84-.84-1.84-1.87.82-1.87,1.84-1.87c1.01,0,1.84.84,1.84,1.87Z"/>
                </g>
              </g>
            </g>
            <text class="st22" transform="translate(1739.8 1464.81) scale(.98 1)"><tspan x="0" y="0">HTML</tspan></text>
          </g>
        </g>
        <g>
          <g>
            <path class="st39" d="M1520.56,1596.61h-43.26c-3.43,0-6.22-2.83-6.22-6.32v-43.98c0-3.49,2.78-6.32,6.22-6.32h43.26c3.43,0,6.22,2.83,6.22,6.32v43.98c0,3.49-2.78,6.32-6.22,6.32Z"/>
            <g>
              <path class="st27" d="M1491.9,1566.14l-7.75,2.71,7.75,2.7v4.42l-13.05-4.81v-4.63l13.05-4.81v4.42Z"/>
              <path class="st27" d="M1500.72,1556.05h5.12l-8.44,24.5h-5.12l8.44-24.5Z"/>
              <path class="st27" d="M1519.01,1566.53v4.63l-13.05,4.81v-4.42l7.75-2.7-7.75-2.71v-4.42l13.05,4.81Z"/>
            </g>
          </g>
          <g>
            <path class="st24" d="M1909.12,1597.66h-35.77c-2.84,0-5.14-2.34-5.14-5.23v-36.37c0-2.89,2.3-5.23,5.14-5.23h35.77c2.84,0,5.14,2.34,5.14,5.23v36.37c0,2.89-2.3,5.23-5.14,5.23Z"/>
            <g>
              <path class="st27" d="M1895.74,1588.36c.02,2.51-1.96,4.56-4.43,4.58-2.47.02-4.48-1.99-4.5-4.5-.02-2.51,1.96-4.56,4.43-4.58,2.47-.02,4.48,1.99,4.5,4.5Z"/>
              <path class="st27" d="M1904.06,1566.9c-7.59-5.82-18.14-5.72-25.63.23-1.17.92-2.82,1.09-3.79.17h0c-.97-.92-.67-2.84.83-4.03,9.2-7.31,22.16-7.43,31.49-.28,1.52,1.16,1.85,3.08.9,4.01h0c-.96.94-2.6.8-3.79-.1Z"/>
              <path class="st27" d="M1899.8,1574.13c-5.13-3.52-11.92-3.46-16.99.15-1.2.84-2.84,1.02-3.83.1h0c-.98-.91-.6-2.93,1.07-4.12,6.7-4.77,15.66-4.85,22.43-.2,1.69,1.15,2.1,3.17,1.14,4.1h0c-.97.93-2.61.79-3.83-.03Z"/>
              <path class="st27" d="M1895.18,1581.43c-2.5-1.27-5.47-1.24-7.95.07-1.26.64-2.9.83-3.91-.06h0c-1.01-.88-.43-3.16,1.68-4.28,3.84-2.04,8.45-2.08,12.33-.11,2.13,1.08,2.74,3.35,1.75,4.25h0c-.99.91-2.64.75-3.91.13Z"/>
            </g>
          </g>
          <g>
            <path class="st24" d="M1593.36,1798.27h-38.71c-3.07,0-5.56-2.53-5.56-5.66v-39.35c0-3.12,2.49-5.66,5.56-5.66h38.71c3.07,0,5.56,2.53,5.56,5.66v39.35c0,3.12-2.49,5.66-5.56,5.66Z"/>
            <text class="st23" transform="translate(1553.47 1780.58) scale(.98 1)"><tspan x="0" y="0">CSS</tspan></text>
          </g>
        </g>
        <g>
          <g>
            <g>
              <path class="st27" d="M1690.06,1537.45h74.43c4.34,0,7.85-3.57,7.85-7.98v-17.33c0-4.41-3.51-7.98-7.85-7.98h-74.43c-4.34,0-7.85,3.57-7.85,7.98v17.33c0,4.41,3.51,7.98,7.85,7.98Z"/>
              <polygon class="st27" points="1682.21 1529.53 1682.21 1550.36 1692.49 1536.56 1682.21 1529.53"/>
            </g>
            <text class="st17" transform="translate(1690.96 1526.15) scale(.98 1)"><tspan x="0" y="0">phyton</tspan></text>
          </g>
          <g>
            <g>
              <path class="st27" d="M1696.27,1750.86h-74.43c-4.34,0-7.85-3.57-7.85-7.98v-17.33c0-4.41,3.51-7.98,7.85-7.98h74.43c4.34,0,7.85,3.57,7.85,7.98v17.33c0,4.41-3.51,7.98-7.85,7.98Z"/>
              <polygon class="st27" points="1704.12 1742.94 1704.12 1763.77 1693.83 1749.97 1704.12 1742.94"/>
            </g>
            <text class="st19" transform="translate(1622.74 1739.56) scale(.98 1)"><tspan x="0" y="0">&lt;code&gt;</tspan></text>
          </g>
        </g>
      </g>
    </g>
  </g>
  <g>
    <ellipse class="st21" cx="1519.13" cy="1387.03" rx="73.96" ry="6.67"/>
    <g>
      <g>
        <g>
          <path class="st47" d="M1477.23,1372.45s-3.38,14.33-2.54,14.88c.85.55,40.77,1.1,42.29,0,1.52-1.1.2-8.08-21.21-14.88,0,0-12.62-4.41-18.54,0Z"/>
          <g class="st56">
            <path class="st27" d="M1511.18,1377.19c-.18,0-7.27-.06-10.05,5.65h-18.56s-3.31-7.32-10.4-4.3c-7.09,3.02-3.07,14.31-3.07,14.31l51.36-3.79-3.49-11.49-5.79-.39Z"/>
          </g>
        </g>
        <path class="st33" d="M1479.34,1357.84l-.89,15.41s5.06,3.18,11.66-.14l.55-15.27h-11.32Z"/>
      </g>
      <g>
        <g>
          <path class="st47" d="M1524.62,1372.45s-3.38,14.33-2.54,14.88c.85.55,40.77,1.1,42.29,0,1.52-1.1.2-8.08-21.21-14.88,0,0-12.62-4.41-18.54,0Z"/>
          <g class="st38">
            <path class="st27" d="M1558.57,1377.19c-.18,0-7.27-.06-10.05,5.65h-18.56s-3.31-7.32-10.4-4.3c-7.09,3.02-3.07,14.31-3.07,14.31l51.36-3.79-3.49-11.49-5.79-.39Z"/>
          </g>
        </g>
        <path class="st33" d="M1525.6,1358.87l1.12,13.98s6.25,2.56,10.99-.42l-.92-15.42-11.2,1.86Z"/>
      </g>
      <g>
        <path class="st26" d="M1522.47,1352.95s.33,6.63,1.93,7.23c1.6.59,2.89.05,4.92.09s6.03-.06,7.82-.43c1.79-.37,2.65-1,1.72-7.4-.92-6.4-16.39.52-16.39.52Z"/>
        <g>
          <path class="st26" d="M1477.9,1357.65c-.12,1.15.96,1.63,1.56,1.81,1.31.4,3.92.42,5.27.58,2.4.28,3.9.19,6.3.47.37.04,1.39.08,1.75-.06.72-.3.35-1.27.49-2.09.16-.91.59-1.89.64-2.81,0-.12.01-.24-.02-.35-.06-.22-.24-.37-.41-.49-1.66-1.23-3.68-1.71-5.67-2.05-1.55-.27-3.12-.46-4.68-.31-1.45.14-3.04.6-4.24,1.54-.44.35-1.23-.25-1.27.31-.07.81.36,2.61.27,3.46Z"/>
          <path class="st25" d="M1474.88,1270s-.1,43.24-.71,44.38c-.45.84-.86,22.47-1.04,33.73-.06,3.8,2.57,7,6.05,7.38,4.36.47,10.15,1.04,14.32,1.21,2.38.1,4.44-1.79,4.75-4.36l7.63-63.06s5.13-.94,5.7-.94c.48,0,6.56,49.69,8.28,63.85.26,2.13,1.95,3.7,3.93,3.65,6.04-.15,11.61,2.01,17.92-2.73,6.65-4.99-8.7-95.92-8.7-95.92l-58.13,12.82Z"/>
          <path class="st26" d="M1476.4,1273.9s-1.24,16.82,0,17.84c1.24,1.01,10.43-3.45,13.58-5.47,3.15-2.03,4.83-22.56,4.83-22.56l-18.41,10.2Z"/>
          <path class="st26" d="M1523,1259.91s4.11,26.75,5.97,28.38c1.87,1.62,5.04,1.62,5.04,1.62l-1.87-30h-9.15Z"/>
          <path class="st27" d="M1504.67,1267.23s-3.79,8.55-3.49,15.53c0,0,.6.59.96,0s1.2-10.7,4.33-15.53c3.13-4.83-1.8,0-1.8,0Z"/>
          <path class="st27" d="M1516.01,1267.23s3.79,8.55,3.49,15.53c0,0-.6.59-.96,0s-1.2-10.7-4.33-15.53c-3.13-4.83,1.8,0,1.8,0Z"/>
          <path class="st26" d="M1507.51,1267.95s-1.1,17.36-.74,18.01,4.93-.39,5.17-1.04,0-19.38,0-19.38l-4.43,2.41Z"/>
        </g>
        <g>
          <g>
            <path class="st30" d="M1484.09,1150.09c-.44.08-.79.4-1.15.68-2.08,1.6-5.1,1.58-7.16-.04s-3.03-4.72-2.29-7.37c-2.63.44-5.42-.49-7.37-2.45-1.95-1.96-3.02-4.91-2.83-7.79-2.07-.02-4.49-.24-5.63-2.12-.6-.99-.69-2.23-.77-3.41-.11-1.7-.21-3.43.16-5.08.37-1.66,1.28-3.25,2.72-3.95-1.1-3.91-2.22-7.93-1.88-12,.34-4.07,2.49-8.24,6.06-9.52.47-.17.99-.31,1.29-.73.23-.32.3-.75.33-1.15.28-2.99-.37-6.08.39-8.97.72-2.73,2.76-5.01,5.26-5.87,2.49-.86,5.37-.29,7.41,1.49,1.14-2.35,2.95-4.48,5.31-5.16,2.37-.67,5.26.56,6.02,3.09,1.71-2.91,4.58-5.3,7.76-5.19,3.18.1,6.21,3.53,5.37,6.86,2.51-1.8,5.49-3.29,8.44-2.66,2.95.64,5.42,4.28,4.11,7.22,2.69-.73,5.47-1.46,8.21-.97s5.44,2.54,5.94,5.5c.48,2.84-1.09,5.56-2.59,7.94,3.06,1.35,5.46,4.34,6.27,7.82.82,3.47.04,7.35-2.05,10.13-.27.36-.58.76-.57,1.23.01.38.23.7.43,1.01,1.23,1.89,2.09,4.18,1.9,6.49-.19,2.31-1.61,4.58-3.68,5.15.79.7,1.3,1.85,1.1,2.93-.2,1.09-1.23,1.98-2.23,1.76,1.57,1.12,1.75,3.8.61,5.42-1.14,1.62-3.23,2.22-5.08,1.87.42,2.1.59,4.85-1.18,5.82-.57.32-1.23.35-1.87.35-2.17-.03-4.31-.54-6.44-.95-6.07-1.15-12.49-1.62-18.63-.87-1.86.23-3.18.85-4.69,2.03-.98.76-1.9,1.68-3.1,2-1.46.38-2.58-.76-3.91-.53Z"/>
            <path class="st37" d="M1528.82,1123.32h-11.54l.26.8s11.49.82,11.48.7c0-.12-.2-1.51-.2-1.51Z"/>
            <path class="st43" d="M1490.22,1149.01s.82,11.93,0,12.23c-.82.3-10.85,7.76-10.85,7.76l18.82,6.86,18.55-3.43.55-10s-8.93-3.73-9.48-3.88c-.55-.15-2.06-10.29-2.06-10.29l-15.52.75Z"/>
            <path class="st33" d="M1481.43,1120.36s3.3,27.75,6.46,30.14c3.16,2.39,25.28,7.76,28.16.75,2.89-7.01,2.34-42.37.55-44.01-1.79-1.64-26.1-1.19-26.1-1.19l-9.07,14.32Z"/>
            <path class="st30" d="M1523.88,1111.9c-.29-2.2-.73-4.46-1.93-6.26-1.9-2.84-5.27-3.94-8.43-4.69-6.51-1.53-13.19-2.3-19.84-1.94-2.41.13-4.86.42-7.03,1.56-3.88,2.04-6.2,6.42-7.87,10.73-1.99,5.15-3.35,11.16-1.11,16.19,1.18,2.65,3.3,4.88,3.73,7.78.16,1.08.07,2.2.35,3.24.29,1.04,1.14,2.04,2.13,1.92,1.16-.15,1.71-1.6,2.02-2.83.14-.57.28-1.16.18-1.74-.1-.58-.53-1.14-1.07-1.15,1.49-1.72,1.79-4.04.81-6.07-.93-1.93-.82-2.59-.63-4.79,1-.18,1.63,1.07,2.66.97.99-.09,1.67-1.24,2.01-2.14.49-1.29.77-2.67.82-4.07,1.82-.28,3.77.82,5.44,0,1.04-.51,1.69-1.69,1.94-2.9.25-1.21.15-2.46.04-3.69,1.29-.54,2.67.75,4.05.58,1.39-.17,2.23-1.72,2.85-3.09,1.58,1.17,3.55,1.7,5.45,1.47-.42,1.58.19,3.41,1.44,4.34s3.05.86,4.24-.14c.26,1.29.72,2.53,1.37,3.65,1.7.38,3.64.65,5.02-.5,1.7-1.4,1.67-4.15,1.37-6.44Z"/>
            <path class="st30" d="M1496.81,1129.72c0,1.95-.68,3.52-1.51,3.52s-1.51-1.58-1.51-3.52.68-3.52,1.51-3.52,1.51,1.58,1.51,3.52Z"/>
            <path class="st30" d="M1514.61,1129.72c0,1.95-.68,3.52-1.51,3.52s-1.51-1.58-1.51-3.52.68-3.52,1.51-3.52,1.51,1.58,1.51,3.52Z"/>
            <path class="st27" d="M1509.59,1144.2c0,2.82-2.71,5.1-6.04,5.1s-6.04-2.28-6.04-5.1,2.71-.72,6.04-.72,6.04-2.1,6.04.72Z"/>
            <path class="st55" d="M1503.91,1123.87c-.12,2.89-.35,6.47,1.18,9.02.7,1.16,2.11,1.76,2.27,3.28.19,1.88-1.96,2.29-3.22,2.42-.6.06-.61,1.09,0,1.03,1.34-.14,2.8-.38,3.67-1.62.83-1.2.53-2.72-.28-3.83-.48-.66-1.18-1.08-1.62-1.78-.47-.77-.7-1.73-.87-2.63-.35-1.93-.26-3.92-.18-5.87.03-.66-.92-.66-.94,0h0Z"/>
            <path class="st12" d="M1529.04,1125.57c0-7.05-5.26-7.6-11.75-7.6s-11.75.55-11.75,7.6,5.26,12.76,11.75,12.76,11.75-5.71,11.75-12.76Z"/>
            <path class="st37" d="M1465.53,1129.3c.58-.21.9-.88.83-1.54-.07-.67-.28-2.02.12-2.24,1.34-.74,1.83-.89,13.03-.98l.2-1.34s-13.6.56-14.03,1.65c-1.05,2.66-.88,4.71-.15,4.44Z"/>
            <path class="st33" d="M1479.37,1125.58s-4.53-3.43-5.63,0c-1.1,3.43,3.05,13.3,7.69,8.5l-2.06-8.5Z"/>
            <path class="st12" d="M1502.98,1125.57c0-7.05-5.26-7.6-11.75-7.6s-11.75.55-11.75,7.6,5.26,12.76,11.75,12.76,11.75-5.71,11.75-12.76Z"/>
          </g>
          <path class="st37" d="M1502.97,1125.38s1.4-.86,2.33,0v-1.3l-2.33.16v1.13Z"/>
        </g>
        <path class="st27" d="M1483.93,1165.63s4.79,8.23,17.95,6.02c13.16-2.21,13.91-9.84,13.91-9.84,0,0,17.63-8.13,30.17,14.05,12.54,22.18,10.78,71.49,10.78,71.49l-82.78-12.83-14.53-60.17s10.32-6.39,24.5-8.72Z"/>
        <g>
          <path class="st25" d="M1504.72,1183.15c20.23-2.43,26.74-13.5,28.83-20.3-1.79-.94-3.54-1.56-5.21-1.95-2.46,5.73-8.63,13.82-24.06,16.98-18.82,3.85-29.21-4.53-33.19-8.89-1.81.65-3.45,1.31-4.89,1.94,5.47,5.65,17.71,14.71,38.51,12.22Z"/>
          <path class="st41" d="M1462.75,1188.08c11.04,4.79,24.57,7.38,41.4,8.55,18.36,1.28,34.33-14.01,41.21-21.8-1.07-1.79-2.18-3.39-3.31-4.78-4.56,7.9-15.08,20.16-37.04,22.24-19.47,1.84-34.52-4.29-43.55-9.58l1.29,5.36Z"/>
          <polygon class="st25" points="1480.03 1204.85 1480.03 1198.81 1464.58 1195.66 1466.07 1201.85 1480.03 1204.85"/>
          <polygon class="st41" points="1474.17 1211.98 1474.17 1206.55 1467.21 1206.55 1468.52 1211.98 1474.17 1211.98"/>
          <polygon class="st25" points="1474.17 1216.78 1469.83 1217.42 1470.74 1221.16 1474.17 1220.19 1474.17 1216.78"/>
          <path class="st41" d="M1474.17,1224.26c-.82.15-1.66.38-2.53.66l1.35,5.6c1.92-.88,3.03-1.26,3.03-1.26,0,0,12.7-7.67-1.86-5Z"/>
        </g>
        <polygon class="st28" points="1466.98 1180.36 1480.03 1272.73 1581.18 1259.22 1570.94 1166.26 1466.98 1180.36"/>
        <polygon class="st30" points="1472.3 1192.83 1482.64 1268.39 1578.23 1256.45 1569.56 1179.62 1472.3 1192.83"/>
        <g>
          <g>
            <path class="st41" d="M1561.37,1174.94c-.06,1.67-1.36,2.97-2.9,2.9-1.54-.07-2.73-1.48-2.67-3.15.06-1.67,1.36-2.97,2.9-2.9,1.54.07,2.73,1.48,2.67,3.15Z"/>
            <path class="st47" d="M1568.45,1174.17c-.06,1.67-1.36,2.97-2.9,2.9-1.54-.07-2.73-1.48-2.67-3.15.06-1.67,1.36-2.97,2.9-2.9s2.73,1.48,2.67,3.15Z"/>
            <path class="st35" d="M1554.02,1175.63c-.06,1.67-1.36,2.97-2.9,2.9-1.54-.07-2.73-1.48-2.67-3.15.06-1.67,1.36-2.97,2.9-2.9,1.54.07,2.73,1.48,2.67,3.15Z"/>
          </g>
          <g>
            <g>
              <polygon class="st35" points="1487.15 1211.23 1495.43 1210.11 1495.68 1212.26 1487.39 1213.38 1487.15 1211.23"/>
              <polygon class="st47" points="1496.65 1209.94 1502.12 1209.2 1502.37 1211.35 1496.9 1212.09 1496.65 1209.94"/>
              <polygon class="st27" points="1491.06 1214.35 1511.79 1211.54 1512.04 1213.69 1491.31 1216.5 1491.06 1214.35"/>
              <polygon class="st27" points="1512.8 1211.4 1528.54 1209.27 1528.78 1211.42 1513.05 1213.56 1512.8 1211.4"/>
              <polygon class="st35" points="1529.5 1209.14 1532.04 1208.79 1532.29 1210.95 1529.75 1211.29 1529.5 1209.14"/>
              <polygon class="st35" points="1491.48 1217.94 1496.26 1217.29 1496.5 1219.44 1491.72 1220.09 1491.48 1217.94"/>
              <polygon class="st41" points="1489.72 1221.82 1494.5 1221.17 1494.75 1223.33 1489.97 1223.97 1489.72 1221.82"/>
              <polygon class="st41" points="1490.73 1230.62 1495.51 1229.97 1495.76 1232.13 1490.98 1232.77 1490.73 1230.62"/>
              <polygon class="st27" points="1494.02 1224.89 1512.5 1222.38 1512.75 1224.54 1494.27 1227.04 1494.02 1224.89"/>
              <polygon class="st35" points="1543.35 1218.2 1547.04 1217.7 1547.29 1219.86 1543.6 1220.36 1543.35 1218.2"/>
              <polygon class="st27" points="1513.03 1222.31 1542.78 1218.28 1543.02 1220.44 1513.28 1224.47 1513.03 1222.31"/>
              <polygon class="st27" points="1495.17 1234.85 1513.65 1232.35 1513.9 1234.5 1495.41 1237.01 1495.17 1234.85"/>
              <polygon class="st47" points="1544.49 1228.17 1548.19 1227.67 1548.44 1229.82 1544.74 1230.32 1544.49 1228.17"/>
              <polygon class="st27" points="1514.18 1232.28 1543.92 1228.25 1544.17 1230.4 1514.42 1234.43 1514.18 1232.28"/>
              <polygon class="st41" points="1498.29 1238.35 1507.78 1237.06 1508.03 1239.22 1498.53 1240.5 1498.29 1238.35"/>
              <polygon class="st35" points="1547.61 1231.67 1551.31 1231.17 1551.56 1233.32 1547.86 1233.82 1547.61 1231.67"/>
              <polygon class="st35" points="1539.84 1236.64 1543.54 1236.14 1543.79 1238.29 1540.09 1238.79 1539.84 1236.64"/>
              <polygon class="st47" points="1554.55 1246.41 1558.25 1245.91 1558.49 1248.06 1554.8 1248.56 1554.55 1246.41"/>
              <polygon class="st27" points="1508.17 1237.01 1547.04 1231.74 1547.29 1233.9 1508.42 1239.16 1508.17 1237.01"/>
              <polygon class="st41" points="1503.67 1241.54 1513.17 1240.25 1513.42 1242.41 1503.92 1243.69 1503.67 1241.54"/>
              <polygon class="st27" points="1513.56 1240.2 1539.07 1236.74 1539.32 1238.9 1513.81 1242.36 1513.56 1240.2"/>
              <polygon class="st41" points="1509.06 1244.73 1518.56 1243.44 1518.8 1245.6 1509.31 1246.89 1509.06 1244.73"/>
              <polygon class="st27" points="1518.94 1243.39 1557.81 1238.13 1558.06 1240.28 1519.19 1245.55 1518.94 1243.39"/>
              <polygon class="st41" points="1514.45 1247.92 1523.94 1246.64 1524.19 1248.79 1514.69 1250.08 1514.45 1247.92"/>
              <polygon class="st27" points="1524.33 1246.58 1563.2 1241.32 1563.45 1243.47 1524.58 1248.74 1524.33 1246.58"/>
              <polygon class="st41" points="1514.89 1251.78 1524.39 1250.5 1524.63 1252.65 1515.14 1253.94 1514.89 1251.78"/>
              <polygon class="st27" points="1524.77 1250.44 1553.76 1246.52 1554 1248.67 1525.02 1252.6 1524.77 1250.44"/>
              <polygon class="st27" points="1497.47 1217.12 1528.95 1212.86 1529.2 1215.01 1497.72 1219.28 1497.47 1217.12"/>
              <polygon class="st35" points="1529.91 1212.73 1532.46 1212.38 1532.7 1214.54 1530.16 1214.88 1529.91 1212.73"/>
            </g>
            <g>
              <path class="st41" d="M1484.36,1196.46s.99,11.21,1.29,11.2c.57-.01,15.27-2.26,15.27-2.26l-1.58-11.34-14.98,2.4Z"/>
              <polygon class="st27" points="1489.31 1196.9 1487.14 1202.01 1491.42 1205.76 1492.19 1204.84 1488.5 1201.71 1490.57 1197.43 1489.31 1196.9"/>
              <polygon class="st27" points="1492.32 1197.11 1496.72 1199.99 1494.52 1204.77 1495.23 1205.4 1498.04 1199.54 1492.62 1196.13 1492.32 1197.11"/>
            </g>
          </g>
        </g>
        <g>
          <path class="st33" d="M1477.45,1275.72s4.55,4.94,6.18,4.78c1.63-.16,2.32-1.9,2.32-1.9,0,0,3.28.74,4.03.25.75-.49.48-2.97.77-3.13s1.2.12,2.57-.3c1.37-.41,1.01-2.94,1.24-3.02s3.67-.4,3.59-1.95c-.24-4.45-5.11-5.53-8.16-6.68-3.05-1.15-12.53,11.95-12.53,11.95Z"/>
          <g>
            <path class="st41" d="M1471.33,1272.11s2.31,5.27,5.08,5.27,14.9-11,14.33-15.34c-.57-4.34-5.85-6.51-5.85-6.51l-13.55,16.58Z"/>
            <g>
              <path class="st27" d="M1465.86,1171.74s-17.52,3.35-25.94,28.3c-8.42,24.95-8.56,38.44,3.57,53.47,12.13,15.03,12.99,14.41,18.7,21.08,5.71,6.66,17.27-6.2,19.27-9.3,2-3.1,11.56-9.85,7.56-17.95-4-8.09-12.63-9.56-14.38-15.33-1.75-5.78-8.78-60.27-8.78-60.27Z"/>
              <g>
                <path class="st41" d="M1454.31,1177.89c-1.19.96-2.39,2.12-3.61,3.4,5.12,3.72,11.01,6.66,17.63,8.95-.2-1.46-.39-2.88-.57-4.23-6.24-2.87-10.87-6.1-13.45-8.12Z"/>
                <path class="st25" d="M1470.02,1202.7c-.28-2.05-.56-4.09-.84-6.1l-25.56-5.21c-.83,1.58-1.63,3.29-2.38,5.13l28.78,6.19Z"/>
                <path class="st25" d="M1483.64,1240.85c-2-1.65-4.06-2.97-5.74-4.39-10.75,8.2-21.25,22.12-25.34,27.83,2.13,2.37,3.61,3.86,5.04,5.32,8.13-10.16,20.29-22.86,26.04-28.76Z"/>
                <path class="st41" d="M1471.33,1211.98c-.25-1.77-.51-3.58-.77-5.42h-32.72c-.56,1.88-1.06,3.68-1.51,5.42h34.99Z"/>
                <path class="st25" d="M1472.07,1217.09l-37.77,5.51c-.36,3.13-.44,6.06-.23,8.85l38.54-10.81c-.17-1.13-.35-2.31-.53-3.54Z"/>
                <path class="st41" d="M1473.21,1224.48c-11.16,2.71-26.63,17.34-33.29,24.08,1.05,1.64,2.23,3.29,3.58,4.95.09.12.18.22.27.34,12.48-15.16,25.65-21.81,30.41-23.85-.27-1.38-.6-3.26-.97-5.52Z"/>
              </g>
            </g>
            <g>
              <path class="st27" d="M1465.86,1171.74s-17.52,3.35-25.94,28.3c-8.42,24.95-8.56,38.44,3.57,53.47,12.13,15.03,12.99,14.41,18.7,21.08,5.71,6.66,17.27-6.2,19.27-9.3,2-3.1,11.56-9.85,7.56-17.95-4-8.09-12.63-9.56-14.38-15.33-1.75-5.78-8.78-60.27-8.78-60.27Z"/>
              <g>
                <path class="st41" d="M1454.31,1177.89c-1.19.96-2.39,2.12-3.61,3.4,5.12,3.72,11.01,6.66,17.63,8.95-.2-1.46-.39-2.88-.57-4.23-6.24-2.87-10.87-6.1-13.45-8.12Z"/>
                <path class="st25" d="M1470.02,1202.7c-.28-2.05-.56-4.09-.84-6.1l-25.56-5.21c-.83,1.58-1.63,3.29-2.38,5.13l28.78,6.19Z"/>
                <path class="st25" d="M1483.64,1240.85c-2-1.65-4.06-2.97-5.74-4.39-10.75,8.2-21.25,22.12-25.34,27.83,2.13,2.37,3.61,3.86,5.04,5.32,8.13-10.16,20.29-22.86,26.04-28.76Z"/>
                <path class="st41" d="M1471.33,1211.98c-.25-1.77-.51-3.58-.77-5.42h-32.72c-.56,1.88-1.06,3.68-1.51,5.42h34.99Z"/>
                <path class="st25" d="M1472.07,1217.09l-37.77,5.51c-.36,3.13-.44,6.06-.23,8.85l38.54-10.81c-.17-1.13-.35-2.31-.53-3.54Z"/>
                <path class="st41" d="M1473.21,1224.48c-11.16,2.71-26.63,17.34-33.29,24.08,1.05,1.64,2.23,3.29,3.58,4.95.09.12.18.22.27.34,12.48-15.16,25.65-21.81,30.41-23.85-.27-1.38-.6-3.26-.97-5.52Z"/>
              </g>
              <path class="st50" d="M1489.02,1247.35c-4-8.09-12.63-9.56-14.38-15.33-.78-2.58-2.61-14.85-4.4-27.65-1.21,3.22-3.14,6.06-5.76,8.11-1.2.94-2.55,1.74-3.44,3.02-.95,1.36-1.27,3.14-1.25,4.85.05,4.88,2.67,9.38,6.05,12.6,3.38,3.21,7.49,5.35,11.51,7.53,2.53,1.37,5.26,3.03,6.23,5.91.91,2.71,0,5.71-1.11,8.33-1.11,2.66-2.42,5.23-3.9,7.68-1.76,2.9-3.85,5.89-3.88,9.36,0,.22,0,.44.07.64,3.18-2.62,5.83-5.77,6.69-7.11,2-3.1,11.56-9.85,7.56-17.95Z"/>
            </g>
          </g>
        </g>
      </g>
      <g>
        <path class="st33" d="M1574.76,1192.83s3.03-3.35-.18-6c-1.54-1.27-11.29.32-9.98,3.35,1.31,3.03,8.71.47,10.16,2.64Z"/>
        <path class="st33" d="M1574.85,1198.33s3.59-3.37-.18-6c-1.82-1.26-13.33.4-11.81,3.42s10.28.42,11.99,2.58Z"/>
        <path class="st33" d="M1575.27,1204.25s3.03-3.35-.18-6c-1.54-1.27-11.29.32-9.98,3.35,1.31,3.03,8.71.47,10.16,2.64Z"/>
        <path class="st33" d="M1575.76,1208.94s2.59-2.87-.15-5.13c-1.32-1.09-9.67.28-8.55,2.87,1.12,2.6,7.46.41,8.71,2.26Z"/>
      </g>
    </g>
  </g>
  <g>
    <ellipse class="st21" cx="1832.06" cy="1391.31" rx="72.08" ry="6.3"/>
    <g>
      <path class="st28" d="M1842.88,1080.65l-4.34,173.85s-114.53.65-116.51,0-3.73-173.85-3.73-173.85c0,0,124.58,0,124.58,0Z"/>
      <polygon class="st30" points="1726.09 1098.19 1728.84 1247.12 1832.91 1247.12 1835.68 1098.19 1726.09 1098.19"/>
      <g>
        <rect class="st25" x="1751.98" y="1126.21" width="5.62" height="3.02"/>
        <rect class="st27" x="1737.46" y="1126.21" width="5.62" height="3.02"/>
        <rect class="st27" x="1737.46" y="1132.49" width="5.62" height="3.02"/>
        <rect class="st27" x="1737.47" y="1138.76" width="5.62" height="3.02"/>
        <rect class="st27" x="1737.47" y="1145.03" width="5.62" height="3.02"/>
        <rect class="st27" x="1737.47" y="1151.31" width="5.62" height="3.02"/>
        <rect class="st27" x="1737.47" y="1157.58" width="5.62" height="3.02"/>
        <rect class="st27" x="1737.47" y="1163.85" width="5.62" height="3.02"/>
        <rect class="st27" x="1737.47" y="1170.13" width="5.62" height="3.02"/>
        <rect class="st27" x="1737.47" y="1176.4" width="5.62" height="3.02"/>
        <rect class="st27" x="1737.47" y="1182.67" width="5.62" height="3.02"/>
        <rect class="st27" x="1737.48" y="1188.95" width="5.62" height="3.02"/>
        <rect class="st27" x="1737.48" y="1195.22" width="5.62" height="3.02"/>
        <rect class="st27" x="1737.48" y="1201.49" width="5.62" height="3.02"/>
        <rect class="st27" x="1737.48" y="1207.77" width="5.62" height="3.02"/>
        <rect class="st27" x="1737.48" y="1214.04" width="5.62" height="3.02"/>
        <rect class="st27" x="1737.48" y="1220.31" width="5.62" height="3.02"/>
        <rect class="st41" x="1759.23" y="1126.21" width="5.62" height="3.02"/>
        <rect class="st25" x="1797.15" y="1126.2" width="8.51" height="3.02"/>
        <rect class="st27" x="1766.49" y="1126.2" width="29.02" height="3.02"/>
        <rect class="st25" x="1751.98" y="1132.48" width="5.62" height="3.02"/>
        <rect class="st27" x="1772.36" y="1132.48" width="28.52" height="3.02"/>
        <rect class="st41" x="1748.71" y="1138.09" width="5.62" height="3.02"/>
        <rect class="st41" x="1754.08" y="1143.68" width="5.62" height="3.02"/>
        <rect class="st27" x="1760.87" y="1143.68" width="17.62" height="3.02"/>
        <rect class="st27" x="1779.66" y="1143.68" width="17.62" height="3.02"/>
        <rect class="st47" x="1798.45" y="1143.68" width="7.72" height="3.02"/>
        <rect class="st41" x="1756.89" y="1149.29" width="5.62" height="3.02"/>
        <rect class="st25" x="1763.68" y="1149.28" width="15.74" height="3.02"/>
        <rect class="st27" x="1780.6" y="1149.28" width="15.74" height="3.02"/>
        <rect class="st41" x="1756.89" y="1166.54" width="13.88" height="3.02"/>
        <rect class="st27" x="1771.91" y="1166.53" width="13.88" height="3.02"/>
        <rect class="st47" x="1786.92" y="1166.53" width="13.88" height="3.02"/>
        <rect class="st27" x="1769.56" y="1178.86" width="15.9" height="3.02"/>
        <rect class="st41" x="1769.56" y="1184.01" width="5.62" height="3.02"/>
        <rect class="st25" x="1776.62" y="1184.01" width="19.73" height="3.02"/>
        <rect class="st47" x="1797.29" y="1184.01" width="4.13" height="3.02"/>
        <rect class="st25" x="1783.91" y="1191.4" width="5.62" height="3.02"/>
        <rect class="st41" x="1789.53" y="1198.23" width="5.62" height="3.02"/>
        <rect class="st25" x="1796.54" y="1198.23" width="5.62" height="3.02"/>
        <rect class="st27" x="1803.56" y="1198.23" width="19.48" height="3.02"/>
        <rect class="st25" x="1789.53" y="1205.07" width="5.62" height="3.02"/>
        <rect class="st47" x="1818.3" y="1205.06" width="9.44" height="3.02"/>
        <rect class="st27" x="1799.73" y="1205.06" width="17.61" height="3.02"/>
      </g>
      <g>
        <g>
          <g>
            <g>
              <path class="st57" d="M1855.95,1352.92s1.39,36.91,2.23,37.01c.84.1,33.81,1.24,35.29.36s-21.64-13.74-24.43-14.61l-.28-27.54-12.82,4.78Z"/>
              <path class="st35" d="M1865.34,1383.78s-.01-10.33-8.41-9.07c0,0-.7,15.42,0,15.91s37.02,2.11,37.95.75-11.71-9.71-14.86-10.22c-3.15-.5-4.09,5.86-4.09,5.86,0,0-9.48-.29-10.59-3.22Z"/>
            </g>
            <g>
              <path class="st57" d="M1820.9,1344.5s-14.21,45.63-15.05,45.65-31.09.29-32.49-.73c-1.41-1.02,20.89-11.36,23.74-11.97l6.65-36.34,17.15,3.38Z"/>
              <path class="st35" d="M1801.2,1384.78s1.57-10.87,8.37-4.8c0,0-1.78,10.55-2.52,10.97s-34.36.86-35.17-.59,14.97-10.49,16.4-9.26c1.49,1.28.15,4.46.15,4.46,0,0,10.78.41,12.78-.78Z"/>
            </g>
          </g>
          <g>
            <path class="st41" d="M1828.45,1151.46c-2.22,0-4.34-.83-6.04-2.37-1.88-1.7-3.01-4.07-3.19-6.66-.18-2.6.61-5.11,2.22-7.08,1.62-1.97,3.87-3.16,6.34-3.35,5.09-.39,9.55,3.64,9.93,9,.38,5.36-3.47,10.04-8.56,10.44-.23.02-.46.03-.7.03ZM1828.47,1133.46c-.19,0-.39,0-.58.02-2.09.16-4,1.17-5.37,2.84-1.37,1.67-2.04,3.8-1.88,6,.15,2.2,1.11,4.2,2.7,5.64,1.59,1.44,3.62,2.15,5.71,1.98,4.32-.33,7.57-4.3,7.25-8.84-.3-4.33-3.76-7.65-7.83-7.65Z"/>
            <path class="st57" d="M1829.01,1127.11s-6.7,32.24,1.18,39.25c7.87,7.01,2.89-41.37,2.89-41.37l-4.07,2.12Z"/>
            <g>
              <path class="st57" d="M1867.6,1181.27s13.9,35.13,11.84,43.13c-2.06,8-16.71,11.69-16.71,11.69l4.87-54.82Z"/>
              <path class="st57" d="M1828.82,1198.56s-42.5-8.66-45.47-16.48c-2.97-7.82-4.38-36.52-4.38-36.52l6.49.56s4.66,26.21,7.73,26.77c3.06.56,41.09,5.45,41.09,5.45l-5.46,20.22Z"/>
              <path class="st57" d="M1867.6,1181.27s-3.87,38.13-1.55,61.5c2.32,23.38-44.06-3.52-44.06-3.52,0,0,.74-2.32,5.18-45.15,4.44-42.83,40.42-12.83,40.42-12.83Z"/>
              <path class="st41" d="M1867.15,1241.28s12.71,114.56,8.27,117.7c-4.44,3.15-24.98,3.34-29.72,2.31l-2.97-75.24-5.27-1.02-11.63,74.64s-28.09-2.73-31.81-3.49c-3.72-.76,24.4-119.15,26.18-119.32,3.32-.31,46.94,4.41,46.94,4.41Z"/>
              <path class="st44" d="M1866.56,1256.47s.32,16.63-2.21,19.71c-2.53,3.08-8.21,4.63-8.21,4.63,0,0-9.28-1.06-10.37-4.52-1.09-3.47-.63-21.05-.63-21.05l21.42,1.22Z"/>
              <path class="st44" d="M1818.97,1251.32s-3.89,16.12-2.09,19.73c1.8,3.6,7,6.46,7,6.46,0,0,9.27,1.18,11.07-1.95,1.81-3.12,5.14-20.35,5.14-20.35l-21.13-3.89Z"/>
              <g>
                <polygon class="st44" points="1865.57 1242.45 1865.19 1249.68 1862.91 1249.53 1863.17 1242.31 1865.57 1242.45"/>
                <polygon class="st44" points="1857.31 1241.85 1856.78 1249.23 1854.3 1249.16 1854.62 1241.48 1857.31 1241.85"/>
                <polygon class="st44" points="1848.59 1241.58 1847.75 1248.24 1845.14 1247.99 1845.76 1241 1848.59 1241.58"/>
                <polygon class="st44" points="1843.24 1241.19 1842.63 1247.67 1840.02 1247.29 1840.79 1240.67 1843.24 1241.19"/>
                <polygon class="st44" points="1833.78 1240.24 1832.91 1247.12 1830.12 1247.08 1830.97 1239.87 1833.78 1240.24"/>
                <polygon class="st44" points="1825.46 1239.59 1824.24 1246.02 1821.55 1245.54 1822.63 1238.9 1825.46 1239.59"/>
              </g>
              <path class="st27" d="M1811.79,1173.53s20.18,2.72,20.96,2.98c.78.26,29.44,5.18,29.44,5.18l3.55.39c3.68.4,6.72,3.19,7.6,6.96l3.19,13.67s-5.17,4.47-11.02,4.81l1.75,24.88s-41.58-2.66-44.73-3.69l2.7-29.88s-4.47-1.18-17.25-4.17c0,0-1.46-12.12,3.82-21.14Z"/>
              <path class="st25" d="M1832.15,1129.87s-7.49-.61-8.27-1.97c-.77-1.36,3.18-12.59,26.24-12.24,23.06.35,20.51,34.72,20.51,34.72l-2.48,51.8s-23.7,5.77-43.85-5.95l7.85-66.36Z"/>
            </g>
            <path class="st41" d="M1821.59,1136.35s25.25-1.42,27.39.57c2.14,2,2.46,5.74-.1,5.2-2.56-.54,1.17-4.23-2.81-4.1-3.99.12-25.39-.03-25.39-.03l.92-1.63Z"/>
            <path class="st57" d="M1833.14,1138.96s1.74-3.46,5.84-2.18c4.1,1.28,1.98,16.46-5.98,12.75l.14-10.57Z"/>
          </g>
        </g>
        <path class="st57" d="M1779.25,1150.34s-4.58-10.41-3.34-12.05c.19-.25,1.56-.13,1.86-.48.36-.43.67-.84.93-.95.94-.42,1.72.36,1.72.36,0,0,.86-1.33,1.48-1.26s1.29.54,1.29.54c0,0-.31-8.76,1.4-9.25,1.71-.49,1.97,11.25,1.97,11.25,0,0,2.05.55,2.05,1.47s.77,5.79-2.51,9.54c-2.26,2.58-6.85.83-6.85.83Z"/>
      </g>
      <g>
        <polyline class="st27" points="1740.4 1107.06 1738 1118.81 1739.99 1118.81 1742.27 1107.06"/>
        <polyline class="st27" points="1745.72 1107.06 1743.32 1118.81 1745.31 1118.81 1747.6 1107.06"/>
        <rect class="st27" x="1749.82" y="1108.41" width="2.19" height="2.31"/>
        <rect class="st27" x="1749.82" y="1115.3" width="2.19" height="2.31"/>
      </g>
      <path class="st47" d="M1836.31,1090.32c0-1.92-1.48-3.48-3.31-3.48s-3.31,1.56-3.31,3.48,1.48,3.48,3.31,3.48c1.83,0,3.31-1.56,3.31-3.48Z"/>
      <path class="st41" d="M1826.31,1090.32c0-1.92-1.48-3.48-3.31-3.48s-3.31,1.56-3.31,3.48,1.48,3.48,3.31,3.48c1.83,0,3.31-1.56,3.31-3.48Z"/>
      <path class="st35" d="M1816.31,1090.32c0-1.92-1.48-3.48-3.31-3.48s-3.31,1.56-3.31,3.48,1.48,3.48,3.31,3.48c1.83,0,3.31-1.56,3.31-3.48Z"/>
    </g>
  </g>
</svg>